<svg width="32" height="33" viewBox="0 0 32 33" fill="none" xmlns="http://www.w3.org/2000/svg">
<g id="vuesax/bold/emoji-happy">
<g id="emoji-happy">
<path id="Vector" d="M21.586 3.16663H10.4127C5.55935 3.16663 2.66602 6.05996 2.66602 10.9133V22.0733C2.66602 26.94 5.55935 29.8333 10.4127 29.8333H21.5727C26.426 29.8333 29.3193 26.94 29.3193 22.0866V10.9133C29.3327 6.05996 26.4394 3.16663 21.586 3.16663ZM11.3327 9.00663C12.706 9.00663 13.8393 10.1266 13.8393 11.5133C13.8393 12.9 12.7193 14.02 11.3327 14.02C9.94602 14.02 8.82602 12.8733 8.82602 11.5C8.82602 10.1266 9.95935 9.00663 11.3327 9.00663ZM15.9993 25.94C12.4127 25.94 9.49268 23.02 9.49268 19.4333C9.49268 18.5 10.2527 17.7266 11.186 17.7266H20.786C21.7193 17.7266 22.4794 18.4866 22.4794 19.4333C22.506 23.02 19.586 25.94 15.9993 25.94ZM20.666 13.9933C19.2927 13.9933 18.1593 12.8733 18.1593 11.4866C18.1593 10.1 19.2794 8.97996 20.666 8.97996C22.0527 8.97996 23.1727 10.1 23.1727 11.4866C23.1727 12.8733 22.0393 13.9933 20.666 13.9933Z" fill="#FE6F4F"/>
</g>
</g>
</svg>
