<svg width="22" height="22" viewBox="0 0 22 22" fill="none" xmlns="http://www.w3.org/2000/svg">
<g id="vuesax/bold/ranking">
<g id="ranking">
<path id="Vector" d="M12.8481 1.86813L14.7259 5.6498C14.982 6.16548 15.6648 6.68116 16.2339 6.76711L19.6339 7.34009C21.8104 7.71253 22.3226 9.28822 20.7577 10.8639L18.1117 13.5426C17.6707 13.9867 17.4146 14.8604 17.5569 15.4907L18.3109 18.7997C18.9083 21.4067 17.5284 22.4238 15.238 21.0629L12.0514 19.1578C11.4682 18.814 10.5292 18.814 9.94598 19.1578L6.74513 21.0486C4.45475 22.4095 3.07483 21.3924 3.67232 18.7854L4.4263 15.4764C4.56856 14.8604 4.31249 13.9867 3.87148 13.5283L1.23968 10.8782C-0.32518 9.30254 0.186955 7.71252 2.36353 7.35441L5.76354 6.78143C6.33258 6.68116 7.01542 6.17981 7.27149 5.66412L9.14932 1.88246C10.1594 -0.180268 11.838 -0.180268 12.8481 1.86813Z" fill="#FE6F4F"/>
</g>
</g>
</svg>
