<svg width="32" height="33" viewBox="0 0 32 33" fill="none" xmlns="http://www.w3.org/2000/svg">
<g id="vuesax/bold/repeat">
<g id="repeat">
<path id="Vector" d="M23.2268 6.38004H7.18677L9.69344 3.87338C10.0801 3.48671 10.0801 2.84671 9.69344 2.46004C9.30677 2.07338 8.66677 2.07338 8.2801 2.46004L4.06677 6.67338C3.97344 6.76671 3.90677 6.87338 3.85344 6.99338C3.8001 7.11338 3.77344 7.24671 3.77344 7.38004C3.77344 7.51338 3.8001 7.64671 3.85344 7.76671C3.90677 7.88671 3.97344 7.99338 4.06677 8.08671L8.2801 12.3C8.4801 12.5 8.73344 12.5934 8.98677 12.5934C9.2401 12.5934 9.49344 12.5 9.69344 12.3C10.0801 11.9134 10.0801 11.2734 9.69344 10.8867L7.18677 8.38004H23.2268C24.8801 8.38004 26.2268 9.72671 26.2268 11.38V15.8067C26.2268 16.3534 26.6801 16.8067 27.2268 16.8067C27.7734 16.8067 28.2268 16.3534 28.2268 15.8067V11.38C28.2268 8.62004 25.9868 6.38004 23.2268 6.38004Z" fill="#FE6F4F"/>
<path id="Vector_2" d="M28.2268 25.62C28.2268 25.4867 28.2001 25.3534 28.1468 25.2334C28.0934 25.1134 28.0268 25.0067 27.9334 24.9134L23.7201 20.7C23.3334 20.3134 22.6934 20.3134 22.3068 20.7C21.9201 21.0867 21.9201 21.7267 22.3068 22.1134L24.8134 24.62H8.77344C7.1201 24.62 5.77344 23.2734 5.77344 21.62V17.1934C5.77344 16.6467 5.3201 16.1934 4.77344 16.1934C4.22677 16.1934 3.77344 16.6467 3.77344 17.1934V21.62C3.77344 24.38 6.01344 26.62 8.77344 26.62H24.8134L22.3068 29.1267C21.9201 29.5134 21.9201 30.1534 22.3068 30.54C22.5068 30.74 22.7601 30.8334 23.0134 30.8334C23.2668 30.8334 23.5201 30.74 23.7201 30.54L27.9334 26.3267C28.0268 26.2334 28.0934 26.1267 28.1468 26.0067C28.2001 25.8867 28.2268 25.7534 28.2268 25.62Z" fill="#FE6F4F"/>
</g>
</g>
</svg>
