<svg width="446" height="109" viewBox="0 0 446 109" fill="none" xmlns="http://www.w3.org/2000/svg">
<g clip-path="url(#clip0_274_27)">
<mask id="mask0_274_27" style="mask-type:luminance" maskUnits="userSpaceOnUse" x="0" y="0" width="446" height="109">
<path d="M446 0H0V109H446V0Z" fill="white"/>
</mask>
<g mask="url(#mask0_274_27)">
<path d="M116.243 74.1074C115.92 79.1747 115.637 82.5365 115.412 84.1831C115.177 85.8298 114.639 87.2509 113.779 88.4467C112.918 89.6326 111.51 90.4656 109.554 90.9263C107.754 91.3478 106.053 91.2693 104.439 90.6912C102.835 90.1127 101.622 89.0641 100.82 87.5253C100.058 85.9865 99.4512 83.6047 99.011 80.3802C98.5711 77.1555 98.4145 71.0101 98.5515 61.9537C98.6884 52.8875 98.9817 47.7812 99.4415 46.6343C99.9011 45.4777 100.615 44.5076 101.564 43.694C102.522 42.8903 103.803 42.3511 105.417 42.0767C107.373 41.8122 109.231 42.0377 110.991 42.7726C112.752 43.498 114.072 44.6936 114.952 46.3403C115.911 48.3791 116.449 52.2408 116.566 57.9451C116.683 63.6495 116.566 69.0302 116.253 74.0975L116.243 74.1074ZM107.881 23.6504C109.485 23.6504 110.952 24.0424 112.282 24.8266C113.603 25.6106 114.669 26.6595 115.471 27.9629C116.272 29.2665 116.674 30.7072 116.674 32.2853C116.674 33.8634 116.272 35.3531 115.471 36.6664C114.669 37.97 113.603 39.0089 112.282 39.7734C110.962 40.5381 109.495 40.93 107.881 40.93C106.268 40.93 104.801 40.5478 103.451 39.7734C102.111 39.0089 101.045 37.97 100.263 36.6664C99.4806 35.363 99.0796 33.9024 99.0796 32.2853C99.0796 30.668 99.4709 29.2665 100.263 27.9629C101.045 26.6595 102.111 25.6106 103.451 24.8266C104.791 24.0424 106.268 23.6504 107.881 23.6504ZM101.505 83.7224C101.662 84.4869 101.965 85.2613 102.424 86.0257C102.884 86.7902 103.471 87.4468 104.175 87.986C104.879 88.525 105.701 88.8682 106.62 89.0249C107.578 89.1034 108.478 89.0053 109.319 88.7408C110.16 88.476 110.855 88.1624 111.392 87.8194L112.194 87.2998C110.434 87.839 108.928 88.0349 107.686 87.9075C106.444 87.7704 105.407 87.4468 104.586 86.9275C103.764 86.4079 103.099 85.8394 102.6 85.2317C102.102 84.6143 101.74 84.1146 101.505 83.7321V83.7224ZM113.974 49.8002C113.818 48.9965 113.524 48.2124 113.084 47.4676C112.644 46.7225 112.067 46.0658 111.363 45.5073C110.649 44.9485 109.818 44.6154 108.859 44.4977C107.901 44.3802 107.011 44.4684 106.189 44.7525C105.368 45.0369 104.683 45.3406 104.146 45.6444L103.344 46.1639C105.065 45.6247 106.551 45.4387 107.793 45.5857C109.035 45.7425 110.072 46.0758 110.894 46.5951C111.715 47.1147 112.38 47.6732 112.879 48.2613C113.378 48.8594 113.739 49.369 113.974 49.7905V49.8002ZM114.776 30.6191C114.62 29.8154 114.326 29.0313 113.886 28.2865C113.446 27.5414 112.869 26.8847 112.165 26.3262C111.461 25.7674 110.62 25.4343 109.661 25.3166C108.703 25.1989 107.774 25.2577 106.874 25.4929C105.974 25.7284 105.241 25.9733 104.664 26.238L103.745 26.6398C105.466 26.1399 106.972 25.9733 108.253 26.1496C109.534 26.3262 110.62 26.6888 111.5 27.2473C112.38 27.8062 113.094 28.404 113.622 29.0313C114.16 29.6684 114.542 30.1976 114.766 30.6191H114.776Z" fill="white"/>
<path d="M138.796 49.0553C141.289 46.9088 143.891 45.3995 146.61 44.5369C149.329 43.6744 152.321 43.7233 155.578 44.684C158.258 45.6051 160.438 47.0069 162.13 48.8887C163.812 50.7705 165.064 52.9464 165.866 55.426C166.668 57.9059 167.099 60.5033 167.157 63.228C167.216 65.9528 166.971 68.6284 166.443 71.265C165.905 73.8919 165.123 76.3029 164.086 78.4885C162.786 81.2525 161.015 83.6931 158.776 85.8002C156.536 87.9175 153.514 89.4561 149.73 90.4364C145.935 91.4164 140.918 91.0245 134.669 89.2504C133.407 90.5538 131.989 91.4067 130.414 91.8182C128.84 92.2201 127.363 92.1515 125.964 91.6123C124.566 91.0734 123.5 90.0345 122.776 88.5054C121.779 86.2805 121.094 83.1343 120.703 79.057C120.322 74.9896 120.136 67.1288 120.155 55.4752C120.175 43.8214 120.194 36.8038 120.214 34.422C120.233 32.0402 120.703 29.8251 121.622 27.7669C122.541 25.7088 124.615 24.4933 127.832 24.111C131.627 23.8856 134.317 24.6011 135.911 26.2673C137.495 27.9336 138.375 30.1291 138.522 32.8342C138.678 35.5394 138.766 40.9496 138.805 49.0454L138.796 49.0553ZM122.414 84.6438C122.571 85.4475 122.835 86.2316 123.216 86.9764C123.598 87.7213 124.106 88.3683 124.742 88.9072C125.378 89.4464 126.17 89.7894 127.128 89.9463C127.823 90.0246 128.478 89.9756 129.114 89.7993C129.749 89.6227 130.307 89.3975 130.806 89.1034C131.304 88.819 131.705 88.5545 132.009 88.329L132.409 87.986C130.767 88.4857 129.368 88.7016 128.214 88.6231C127.07 88.5446 126.121 88.2898 125.368 87.8487C124.625 87.4076 124.028 86.9176 123.588 86.3786C123.148 85.8395 122.815 85.3591 122.581 84.9377C122.502 84.8202 122.444 84.732 122.405 84.6535L122.414 84.6438ZM127.872 25.5518C130.013 25.9733 131.686 26.8162 132.869 28.0903C134.052 29.3547 134.942 30.8054 135.51 32.4421C136.087 34.079 136.488 35.6571 136.713 37.1957C136.713 35.8138 136.664 34.5397 136.566 33.3635C136.468 32.1972 136.272 31.1287 135.959 30.1683C135.656 29.2077 135.177 28.3844 134.522 27.6884C133.867 26.9925 133.006 26.4732 131.94 26.1007C130.864 25.7381 129.505 25.5518 127.862 25.5518H127.872ZM137.847 73.6957C137.671 76.8026 137.808 78.7041 138.248 79.4C138.688 80.0959 139.48 80.3606 140.634 80.2037C142.473 79.8607 144.145 78.2436 145.661 75.3619C147.177 72.4804 148.096 69.6086 148.419 66.7465C148.742 63.8847 148.742 61.9048 148.419 60.8169C148.096 59.7192 147.47 58.9252 146.551 58.4252C145.671 58.0822 144.615 58.1704 143.392 58.6801C142.17 59.1996 141.123 60.2288 140.263 61.7577C139.402 63.2966 138.825 64.8843 138.541 66.5409C138.258 68.1873 138.023 70.569 137.847 73.686V73.6957ZM159.832 80.1451C157.152 82.9873 154.307 84.9868 151.294 86.1335C148.282 87.2802 145.309 87.7705 142.355 87.5743C143.431 88.1134 144.693 88.4075 146.15 88.4661C147.607 88.525 149.143 88.2801 150.776 87.7508C152.399 87.2117 153.993 86.3198 155.549 85.075C157.104 83.8302 158.531 82.1836 159.832 80.1547V80.1451ZM162.531 53.5345C162.531 53.5345 162.512 53.4364 162.473 53.3579C162.316 52.9367 162.003 52.2604 161.524 51.339C161.045 50.4176 160.321 49.4572 159.343 48.4573C158.365 47.4577 157.074 46.6736 155.461 46.0954C154.121 45.6347 152.869 45.3995 151.695 45.3799C150.522 45.3603 149.495 45.4584 148.595 45.664C147.695 45.8796 146.991 46.0954 146.502 46.3306L145.7 46.6736C149.338 46.0562 152.507 46.311 155.206 47.4184C157.905 48.5358 160.35 50.5646 162.531 53.5246V53.5345Z" fill="white"/>
<path d="M189.367 49.0553C191.861 46.9088 194.462 45.3995 197.181 44.5369C199.9 43.6744 202.892 43.7233 206.149 44.684C208.829 45.6051 211.01 47.0069 212.702 48.8887C214.384 50.7705 215.636 52.9464 216.438 55.426C217.24 57.9059 217.67 60.5033 217.728 63.228C217.787 65.9528 217.543 68.6284 217.015 71.265C216.477 73.8919 215.694 76.3029 214.658 78.4885C213.357 81.2525 211.587 83.6931 209.347 85.8002C207.108 87.9175 204.086 89.4561 200.301 90.4364C196.506 91.4164 191.489 91.0245 185.24 89.2504C183.978 90.5538 182.56 91.4067 180.986 91.8182C179.411 92.2201 177.934 92.1515 176.536 91.6123C175.137 91.0734 174.071 90.0345 173.348 88.5054C172.35 86.2805 171.665 83.1343 171.274 79.057C170.893 74.9896 170.707 67.1288 170.727 55.4752C170.746 43.8214 170.766 36.8038 170.785 34.422C170.805 32.0402 171.274 29.8251 172.194 27.7669C173.113 25.7088 175.186 24.4933 178.404 24.111C182.198 23.8856 184.888 24.6011 186.482 26.2673C188.066 27.9336 188.946 30.1291 189.093 32.8342C189.25 35.5394 189.338 40.9496 189.377 49.0454L189.367 49.0553ZM172.986 84.6438C173.142 85.4475 173.406 86.2316 173.788 86.9764C174.169 87.7213 174.678 88.3683 175.313 88.9072C175.949 89.4464 176.741 89.7894 177.7 89.9463C178.394 90.0246 179.049 89.9756 179.685 89.7993C180.321 89.6227 180.878 89.3975 181.377 89.1034C181.876 88.819 182.277 88.5545 182.58 88.329L182.981 87.986C181.338 88.4857 179.939 88.7016 178.785 88.6231C177.641 88.5446 176.692 88.2898 175.939 87.8487C175.196 87.4076 174.599 86.9176 174.159 86.3786C173.719 85.8395 173.387 85.3591 173.152 84.9377C173.074 84.8202 173.015 84.732 172.976 84.6535L172.986 84.6438ZM178.443 25.5518C180.585 25.9733 182.257 26.8162 183.44 28.0903C184.624 29.3547 185.514 30.8054 186.081 32.4421C186.658 34.079 187.059 35.6571 187.284 37.1957C187.284 35.8138 187.235 34.5397 187.137 33.3635C187.039 32.1972 186.844 31.1287 186.531 30.1683C186.228 29.2077 185.748 28.3844 185.093 27.6884C184.438 26.9925 183.577 26.4732 182.511 26.1007C181.435 25.7381 180.076 25.5518 178.433 25.5518H178.443ZM188.418 73.6957C188.242 76.8026 188.379 78.7041 188.819 79.4C189.259 80.0959 190.052 80.3606 191.206 80.2037C193.044 79.8607 194.717 78.2436 196.232 75.3619C197.748 72.4804 198.668 69.6086 198.99 66.7465C199.313 63.8847 199.313 61.9048 198.99 60.8169C198.668 59.7192 198.042 58.9252 197.122 58.4252C196.242 58.0822 195.186 58.1704 193.963 58.6801C192.741 59.1996 191.695 60.2288 190.834 61.7577C189.973 63.2966 189.396 64.8843 189.113 66.5409C188.829 68.1873 188.594 70.569 188.418 73.686V73.6957ZM210.403 80.1451C207.724 82.9873 204.878 84.9868 201.866 86.1335C198.853 87.2802 195.88 87.7705 192.927 87.5743C194.003 88.1134 195.264 88.4075 196.721 88.4661C198.179 88.525 199.714 88.2801 201.347 87.7508C202.971 87.2117 204.565 86.3198 206.12 85.075C207.675 83.8302 209.103 82.1836 210.403 80.1547V80.1451ZM213.103 53.5345C213.103 53.5345 213.083 53.4364 213.044 53.3579C212.887 52.9367 212.575 52.2604 212.095 51.339C211.616 50.4176 210.892 49.4572 209.915 48.4573C208.936 47.4577 207.645 46.6736 206.032 46.0954C204.692 45.6347 203.44 45.3995 202.267 45.3799C201.093 45.3603 200.066 45.4584 199.166 45.664C198.267 45.8796 197.562 46.0954 197.074 46.3306L196.272 46.6736C199.91 46.0562 203.078 46.311 205.778 47.4184C208.477 48.5358 210.922 50.5646 213.103 53.5246V53.5345Z" fill="white"/>
<path d="M240.457 91.5539C234.247 91.5539 229.426 89.5151 225.973 85.4475C222.834 81.7623 221.259 76.5969 221.259 69.9518C221.259 68.6089 221.386 66.6978 221.631 64.2179C221.875 61.7383 222.765 58.9057 224.272 55.691C225.787 52.4859 227.978 49.7711 230.853 47.546C234.492 44.8212 238.13 43.459 241.768 43.459C244.105 43.459 246.442 44.0176 248.781 45.1252C251.117 46.2424 253.289 48.0164 255.304 50.457C257.318 52.8977 258.872 55.7302 259.987 58.9547C261.024 61.9539 261.543 65.0608 261.543 68.2856C261.543 72.3532 260.779 76.1365 259.245 79.6354C255.684 87.5844 249.416 91.5539 240.447 91.5539H240.457ZM224.995 79.8609C225.377 81.586 226.374 83.2716 227.988 84.8986C229.602 86.5355 231.489 87.8292 233.68 88.7899C235.861 89.7503 237.993 90.1129 240.056 89.8877C238.755 89.9659 237.347 89.6818 235.831 89.0544C234.315 88.4174 232.839 87.5744 231.401 86.5159C229.963 85.4574 228.682 84.34 227.548 83.1442C226.413 81.9583 225.562 80.8605 224.985 79.8609H224.995ZM235.46 63.5613C234.345 64.9434 233.758 66.5311 233.68 68.3149C233.601 70.0988 233.914 71.7651 234.628 73.294C235.332 74.8328 236.34 75.9206 237.64 76.5775C236.418 75.1562 235.577 73.7154 235.137 72.2551C234.697 70.7947 234.521 69.3344 234.619 67.8837C234.716 66.4233 234.99 64.9826 235.45 63.5613H235.46ZM242.874 77.9594C244.75 77.6947 246.129 76.1365 247.009 73.294C247.508 71.6081 247.753 69.7655 247.753 67.766L247.695 66.6193C247.392 63.4731 246.56 61.0719 245.22 59.4154C244.301 58.2588 243.148 57.6903 241.768 57.6903C240.927 57.6903 240.134 57.9943 239.411 58.6117C238.11 59.8368 237.113 61.699 236.418 64.1985C236.037 65.5019 235.841 66.7174 235.841 67.8248C235.841 69.8636 236.301 71.9317 237.22 74.0487C238.364 76.6558 240.076 77.9691 242.335 77.9691H242.854L242.874 77.9594ZM253.905 52.9662V52.9073C253.786 52.6036 253.473 51.9762 252.955 51.0352C252.438 50.0944 251.646 49.1045 250.57 48.0656C249.493 47.0267 248.114 46.1837 246.432 45.5271C245.094 45.0664 243.841 44.8312 242.668 44.8312C241.494 44.8312 240.467 44.929 239.567 45.1153C238.667 45.3113 237.963 45.5171 237.474 45.7523L236.672 46.0956C240.35 45.4779 243.596 45.723 246.413 46.8109C249.229 47.9086 251.733 49.9474 253.915 52.9466L253.905 52.9662Z" fill="white"/>
<path d="M310.392 84.1832C310.159 86.3298 309.512 87.8979 308.436 88.8779C307.362 89.8582 306.118 90.4756 304.7 90.7208C303.282 90.9656 301.923 91.0538 300.623 90.9756C298.97 90.8971 297.678 90.4071 296.74 89.5053C295.802 88.6035 295.126 87.3883 294.726 85.8494C294.324 84.3106 294.069 81.3996 293.982 77.097C293.885 72.7941 293.737 69.4028 293.553 66.9035C293.356 64.414 292.847 62.2773 291.997 60.5132C291.156 58.7489 290.041 58.0825 288.661 58.5234C287.282 58.9645 286.276 59.8859 285.648 61.2874C285.023 62.6891 284.652 64.5121 284.555 66.7565C284.456 69.0009 284.642 73.9704 285.103 81.6447C285.181 84.2127 284.546 86.369 283.205 88.0939C281.865 89.819 279.812 90.8775 277.053 91.2597C274.372 91.5245 272.251 91.0441 270.705 89.819C269.151 88.5938 268.036 86.9179 267.341 84.8105C266.647 82.7032 266.206 80.4685 266.022 78.1259C265.326 70.8338 265.2 63.5124 265.62 56.1811C265.658 54.5638 265.855 53.2701 266.226 52.2898C266.589 51.3098 267.292 50.2413 268.32 49.0946C269.348 47.948 270.686 47.1443 272.31 46.7032C273.943 46.2621 275.781 46.3503 277.856 46.958C279.693 45.4976 281.317 44.4488 282.735 43.8215C284.153 43.1844 286.051 42.7729 288.426 42.5866C292.261 42.2436 295.506 42.6651 298.168 43.851C300.827 45.0369 303.008 46.7717 304.691 49.0358C306.373 51.2998 307.684 53.9071 308.603 56.8377C309.522 59.7781 310.147 62.8654 310.472 66.1098C310.794 69.3539 310.93 72.5294 310.872 75.6366C310.813 78.7436 310.646 81.5858 310.382 84.1636L310.392 84.1832ZM268.848 53.662C269.042 53.4367 269.248 53.1623 269.483 52.8583C269.825 52.2801 270.315 51.7116 270.95 51.1627C271.587 50.6042 272.496 50.1728 273.679 49.869C274.862 49.565 276.476 49.5454 278.51 49.8102C277.053 48.928 275.606 48.5164 274.169 48.5751C272.731 48.6339 271.527 49.1046 270.55 49.9865C269.571 50.8687 269.003 52.0938 268.858 53.6719L268.848 53.662ZM269.825 84.585C269.983 85.3887 270.286 86.1728 270.746 86.9179C271.204 87.6627 271.791 88.3194 272.496 88.8779C273.199 89.4367 274.021 89.77 274.94 89.8875C275.899 90.0052 276.799 89.9171 277.64 89.6327C278.481 89.3486 279.174 89.0446 279.712 88.7408L280.515 88.2213C278.755 88.7605 277.25 88.9564 276.006 88.7997C274.765 88.6427 273.728 88.3094 272.906 87.7901C272.084 87.2705 271.42 86.712 270.921 86.1239C270.421 85.5261 270.06 85.0164 269.825 84.595V84.585ZM303.898 52.1624C303.898 52.1624 303.879 52.0645 303.84 51.986C303.685 51.5646 303.35 50.8883 302.834 49.9669C302.315 49.0457 301.542 48.0851 300.505 47.0854C299.47 46.0857 298.11 45.3014 296.428 44.7232C295.01 44.2625 293.679 44.0273 292.438 44.0077C291.194 43.9881 290.089 44.0862 289.132 44.2921C288.172 44.5077 287.43 44.7233 286.892 44.9584L286.031 45.3014C289.905 44.684 293.269 44.9388 296.144 46.0465C299.019 47.1639 301.6 49.1927 303.898 52.1527V52.1624ZM296.369 84.938C296.524 86.516 297.092 87.7412 298.09 88.6231C299.087 89.5053 300.301 89.9757 301.738 90.0345C303.176 90.0934 304.623 89.662 306.08 88.7408C304.007 89.0053 302.393 88.9957 301.22 88.7113C300.046 88.4272 299.145 88.0057 298.519 87.4471C297.884 86.8883 297.375 86.3198 296.995 85.7513C296.798 85.4476 296.592 85.1731 296.36 84.9476L296.369 84.938Z" fill="white"/>
<path d="M328.271 42.2534C330.833 41.832 333.366 41.8809 335.86 42.4002C338.354 42.9198 340.584 43.8608 342.559 45.2231C344.535 46.5856 346.011 48.3104 346.978 50.4081C347.958 52.5055 348.193 54.8873 347.703 57.5825C347.507 58.5039 347.017 59.3861 346.237 60.2287C345.454 61.0717 344.445 61.6305 343.224 61.895C342.002 62.1597 340.642 61.8754 339.144 61.0327C338.686 60.6895 338.364 60.2779 338.167 59.7976C337.971 59.3173 337.826 58.8076 337.707 58.2687C337.59 57.5432 337.355 56.8669 336.994 56.2495C336.633 55.6321 335.889 55.2302 334.784 55.044C333.601 54.9263 332.75 55.1813 332.251 55.7888C331.751 56.4065 331.557 57.1317 331.674 57.9746C331.79 58.8176 332.769 59.8858 334.607 61.1698C336.446 62.4538 338.402 63.8945 340.465 65.4922C342.54 67.0897 344.261 69.1285 345.64 71.6277C347.017 74.127 347.458 76.8517 346.959 79.802C346.46 82.762 345.073 85.183 342.792 87.0844C340.514 88.9859 337.668 90.2306 334.255 90.8284C330.842 91.4262 327.185 91.2206 323.282 90.2207C321.101 89.6425 319.321 88.5644 317.942 86.9667C316.563 85.3789 315.654 83.556 315.213 81.5271C314.774 79.4883 314.9 77.5183 315.586 75.5973C316.163 74.2154 317.062 73.1862 318.284 72.5196C319.508 71.8433 320.907 71.7062 322.48 72.0884C323.401 72.3529 324.133 72.8725 324.69 73.6469C325.248 74.421 325.776 75.5483 326.276 77.0479C326.775 78.5475 327.635 79.3316 328.857 79.4098C330.079 79.4883 330.694 79.0375 330.694 78.0573C330.694 77.0772 330.442 76.2832 329.953 75.6658C329.453 75.0581 328.055 73.8329 325.757 72.01C323.459 70.187 321.677 68.7167 320.417 67.5993C319.154 66.4919 318.08 65.2374 317.201 63.8553C316.318 62.4734 315.664 60.8072 315.244 58.8469C314.706 56.2398 314.871 53.7796 315.732 51.4763C316.592 49.173 318.09 47.203 320.211 45.576C322.334 43.949 325.032 42.8413 328.29 42.2631L328.271 42.2534ZM316.779 81.4193C316.779 81.4193 316.798 81.5172 316.837 81.5956C316.994 82.0171 317.307 82.6934 317.787 83.6148C318.265 84.536 318.989 85.4867 319.966 86.467C320.945 87.447 322.235 88.241 323.849 88.8584C325.19 89.3192 326.44 89.5543 327.616 89.574C328.78 89.5936 329.815 89.4955 330.716 89.2896C331.616 89.0837 332.309 88.8584 332.808 88.6232L333.61 88.28C329.972 88.8977 326.804 88.6429 324.104 87.5352C321.404 86.4178 318.96 84.389 316.779 81.429V81.4193ZM345.228 50.7804C344.506 48.977 343.253 47.4186 341.493 46.1149C339.733 44.8115 337.697 43.9294 335.399 43.4687C333.101 43.008 330.745 43.1061 328.329 43.753C330.401 43.7138 332.476 43.9194 334.568 44.3605C336.652 44.8016 338.618 45.5464 340.456 46.6052C342.295 47.6637 343.888 49.0555 345.228 50.7804ZM336.495 64.3749L344.651 74.1074C344.074 72.5688 343.165 70.9807 341.922 69.3244C340.681 67.6778 338.873 66.0215 336.495 64.3749Z" fill="white"/>
<path d="M373.903 52.6231L379.359 44.8507C380.935 42.4299 382.862 40.9596 385.16 40.4403C387.458 39.9207 389.717 40.5481 391.937 42.3122C393.619 43.7726 394.599 45.3802 394.87 47.1542C395.134 48.9183 394.94 50.6924 394.264 52.486C393.59 54.2698 390.274 59.4841 384.29 68.1191C388.847 76.95 391.254 82.1839 391.496 83.8109C391.741 85.4379 391.586 86.8298 391.009 87.9861C390.393 89.1427 389.521 89.9564 388.396 90.4364C387.261 90.9168 386.049 91.1127 384.75 91.0442C383.449 90.9659 382.227 90.662 381.071 90.123C380.113 89.6623 377.658 87.0354 373.717 82.2329C370.119 86.6827 367.693 89.3389 366.452 90.1816C365.209 91.0246 363.859 91.4853 362.402 91.5637C360.368 91.603 358.56 91.2598 356.975 90.5249C355.38 89.7994 354.303 88.692 353.727 87.212C353.15 85.732 353.385 83.8795 354.422 81.6547L363.156 68.2954C358.744 61.464 355.731 56.4066 354.11 53.1231C352.476 49.8398 352.064 47.3306 352.876 45.6055C353.678 43.8806 354.783 42.7337 356.182 42.1751C357.581 41.6163 359.057 41.3811 360.603 41.4596C362.157 41.5381 363.546 41.9792 364.77 42.7828C365.992 43.5865 369.043 46.8699 373.903 52.6331V52.6231ZM362.979 43.2336C362.285 42.8514 361.473 42.6162 360.535 42.5377C359.595 42.4592 358.667 42.5966 357.748 42.9396C356.827 43.2826 356.015 43.861 355.302 44.6647C354.587 45.4684 354.139 46.5269 353.952 47.8305C354.754 46.4876 355.615 45.488 356.533 44.8313C357.455 44.1744 358.441 43.7433 359.498 43.5374C360.555 43.3317 361.709 43.2237 362.969 43.2237L362.979 43.2336ZM363.723 89.0742C362.46 89.0742 361.296 88.9664 360.252 88.7605C359.195 88.5546 358.206 88.1135 357.287 87.4668C356.369 86.8198 355.508 85.8006 354.706 84.4187C354.941 85.7613 355.399 86.8394 356.085 87.6431C356.778 88.4468 357.581 89.0153 358.499 89.3389C359.42 89.6623 360.349 89.7994 361.287 89.7408C362.227 89.6819 363.037 89.4663 363.732 89.0742H363.723ZM390.393 83.2032C389.894 84.3598 389.336 85.3791 388.73 86.2809C388.112 87.1824 387.322 87.9176 386.343 88.496C385.366 89.0742 384.113 89.4564 382.578 89.6427C383.878 89.9857 385.034 89.9956 386.03 89.672C387.029 89.3486 387.87 88.8291 388.563 88.1138C389.259 87.4079 389.746 86.6042 390.059 85.7221C390.362 84.8401 390.48 83.9972 390.403 83.1836L390.393 83.2032ZM393.21 48.6439C393.287 47.8402 393.168 46.9973 392.865 46.1054C392.562 45.2232 392.063 44.4195 391.37 43.6844C390.677 42.9592 389.826 42.4396 388.808 42.1259C387.79 41.8222 386.636 41.8418 385.337 42.1848C386.91 42.381 388.183 42.7632 389.159 43.3414C390.139 43.9196 390.929 44.6451 391.547 45.527C392.163 46.4092 392.72 47.4481 393.21 48.6342V48.6439Z" fill="white"/>
<path d="M398.753 62.8459C398.959 57.0338 399.204 52.9957 399.468 50.7513C399.732 48.5068 400.261 46.5366 401.051 44.8507C401.834 43.1651 402.862 42.0378 404.122 41.4792C405.385 40.9204 406.842 40.6656 408.495 40.7049C410.138 40.7441 411.779 41.3027 413.403 42.3711C415.027 43.4492 416.268 44.9096 417.109 46.7522C421.092 44.5666 424.737 43.3511 428.053 43.1259C431.369 42.9004 434.263 43.4592 436.729 44.8214C439.203 46.1839 441.198 48.144 442.733 50.6924C444.269 53.2505 445.256 56.2105 445.716 59.5919C446.177 62.9733 446.039 66.5802 445.316 70.4224C444.66 73.7253 443.574 76.8519 442.039 79.8119C440.503 82.7721 438.607 85.2321 436.348 87.212C434.089 89.1919 431.575 90.3483 428.817 90.6915C427.018 90.9267 425.14 90.7012 423.184 90.0346C421.228 89.3683 419.233 88.1431 417.209 86.3788C417.248 90.7894 417.17 94.3278 416.983 96.974C416.787 99.6203 416.249 102.002 415.369 104.119C414.831 105.236 414 106.226 412.865 107.089C411.731 107.952 410.158 108.559 408.122 108.902C406.088 109.245 404.192 108.755 402.43 107.432C400.67 106.109 399.585 103.923 399.185 100.895C398.782 97.8659 398.547 92.2204 398.489 83.958C398.431 75.7052 398.508 68.668 398.724 62.8459H398.753ZM409.813 107.167C407.673 106.746 406.001 105.903 404.818 104.629C403.635 103.364 402.753 101.914 402.205 100.277C401.647 98.6403 401.238 97.0622 400.973 95.5234C400.973 96.9055 401.022 98.1796 401.121 99.3558C401.218 100.522 401.424 101.59 401.756 102.551C402.079 103.511 402.568 104.335 403.223 105.031C403.877 105.726 404.738 106.246 405.804 106.618C406.88 106.981 408.221 107.167 409.826 107.167H409.813ZM414.412 47.3306C414.254 46.5661 413.99 45.7918 413.609 45.0273C413.229 44.2628 412.71 43.6062 412.053 43.067C411.399 42.5278 410.616 42.2044 409.697 42.087C408.963 41.9692 408.289 42.0085 407.654 42.2044C407.019 42.4004 406.451 42.6259 405.962 42.9004C405.462 43.1651 405.082 43.4199 404.808 43.6452L404.347 43.9884C405.991 43.4885 407.389 43.2925 408.543 43.3807C409.697 43.4785 410.645 43.7336 411.389 44.1551C412.133 44.5763 412.739 45.0665 413.2 45.6251C413.658 46.1839 414 46.6739 414.235 47.0954C414.273 47.1736 414.334 47.2521 414.412 47.3207V47.3306ZM416.993 73.0197C417.032 74.2841 417.277 75.2348 417.737 75.8719C418.195 76.5089 419.017 76.7049 420.21 76.4796C421.208 76.2149 422.246 75.3819 423.31 73.9997C424.376 72.6179 425.336 70.7164 426.158 68.2954C426.977 65.8746 427.261 63.3948 426.987 60.8367C426.715 58.2786 425.932 56.583 424.631 55.7401C422.871 55.4753 421.385 56.0341 420.181 57.4356C418.978 58.8374 418.118 60.6407 417.618 62.8459C417.119 65.0513 416.886 66.9821 416.906 68.6386C416.925 70.285 416.954 71.7456 416.993 73.0197ZM439.632 80.4491C437.453 83.4483 435.008 85.4869 432.307 86.5846C429.609 87.6824 426.441 87.9372 422.803 87.359L423.545 87.6432C424.083 87.8783 424.798 88.0942 425.697 88.3097C426.597 88.5253 427.634 88.6135 428.797 88.5939C429.961 88.5743 431.202 88.3587 432.504 87.9275C434.118 87.3099 435.417 86.5062 436.416 85.5065C437.415 84.5069 438.147 83.5462 438.626 82.625C439.106 81.7036 439.4 81.047 439.516 80.6647C439.555 80.547 439.594 80.4688 439.632 80.4295V80.4491ZM442.568 51.8783C441.305 49.8005 439.887 48.1539 438.314 46.9288C436.738 45.7036 435.153 44.8214 433.541 44.2825C431.927 43.7433 430.402 43.4982 428.943 43.5374C427.486 43.5766 426.226 43.8806 425.149 44.4588C428.102 44.2629 431.076 44.7429 434.089 45.8995C437.09 47.0562 439.916 49.0458 442.568 51.8882V51.8783Z" fill="white"/>
<path d="M87.6177 43.4099C91.8033 38.4993 95.324 32.8441 96.1944 26.3262C97.4071 17.3286 92.9086 8.73291 85.0357 3.60685C83.2558 2.45029 81.2803 1.60738 79.2363 1.04871C71.9405 -0.931146 64.8894 -0.147045 58.2292 3.45001C56.2733 4.50855 54.4835 5.88074 53.0165 7.54696C46.2194 15.2802 45.8478 24.611 46.6009 33.736C46.7282 35.2453 46.8455 36.7645 46.9531 38.2837C46.4053 37.9114 45.8478 37.5486 45.2806 37.186C40.6059 34.226 35.5399 31.6972 30.1709 30.286C25.1243 28.9725 19.5108 28.4531 14.4546 30.0017C11.5793 30.8739 8.96811 32.3539 6.77743 34.4024C4.35204 36.6666 2.83615 39.5481 1.63323 42.5962C-0.410759 47.8106 -0.625915 54.1912 1.45719 59.4154C2.621 62.3361 4.14666 64.9628 6.36667 67.2269C8.69428 69.5793 11.4717 71.1867 14.5231 72.4019C21.5156 75.2052 29.6525 74.1171 36.7918 72.4901C40.7918 71.5786 44.7134 70.383 48.5471 68.952C48.6743 71.8238 48.7917 74.6856 48.9383 77.5378C49.1143 81.2525 49.2905 84.9575 49.4762 88.6722C49.6228 91.7007 52.0484 94.6314 55.2756 94.4844C58.2975 94.347 61.2414 91.9263 61.0751 88.6722C60.6938 80.684 60.3123 72.6863 59.9308 64.6983C63.6764 68.5402 67.2755 72.5293 70.7278 76.6067C72.4294 78.6258 74.1116 80.6644 75.7448 82.7325C75.9308 82.9776 76.1067 83.2031 76.2927 83.4383C76.312 83.4676 76.3513 83.4972 76.3806 83.5461C76.3806 83.5461 76.4 83.5657 76.4 83.5754C76.4 83.595 76.4197 83.6146 76.449 83.6343C76.449 83.6343 76.449 83.6539 76.4686 83.6636C76.5176 83.7421 76.5663 83.8106 76.625 83.8891C76.625 83.8891 76.625 83.8891 76.6446 83.9087C76.9086 84.2616 77.2021 84.6143 77.476 84.9672C78.3464 86.1139 79.1972 87.2705 80.0383 88.4368C80.9478 89.6915 81.9552 90.6815 83.5004 91.1126C84.8891 91.4949 86.7375 91.3185 87.9696 90.5245C90.395 88.9564 91.9502 85.2024 90.0527 82.5658C83.8914 74.0486 77.1531 65.8939 69.877 58.2784C71.2657 57.3863 72.625 56.4455 73.965 55.4752C78.894 51.9174 83.6764 48.0361 87.6274 43.3803L87.6177 43.4099ZM29.1536 62.1695C29.3492 62.1499 29.5351 62.1303 29.7307 62.1106C29.2222 62.1792 28.7037 62.248 28.1952 62.3165C28.5181 62.2676 28.8407 62.2284 29.1635 62.1695C26.6696 62.4832 24.1562 62.5713 21.6526 62.3165C21.9655 62.3754 22.2687 62.4243 22.5914 62.4636C22.0829 62.395 21.5646 62.3262 21.056 62.2577C21.2614 62.2773 21.457 62.3066 21.6623 62.3165C20.4301 62.1106 19.2369 61.797 18.0536 61.3658C18.2492 61.4637 18.4448 61.5618 18.6502 61.6402C18.1905 61.4443 17.7308 61.2481 17.2614 61.0618C17.5255 61.1698 17.7895 61.2677 18.0536 61.3658C17.3103 61.0228 16.5866 60.621 15.9118 60.1603C15.9118 60.1603 15.8825 60.1406 15.8531 60.121C16.0194 60.2777 16.0487 60.3269 15.638 59.9837C15.55 59.9151 15.4717 59.8367 15.3935 59.7681C15.3739 59.7681 15.3739 59.7485 15.3641 59.7485C15.3446 59.7289 15.325 59.7192 15.3055 59.7092C15.325 59.7092 15.3348 59.7289 15.3641 59.7388C15.1001 59.5036 14.8458 59.2781 14.6013 59.0133C14.3275 58.7389 14.0634 58.4352 13.8091 58.1411C13.8678 58.2293 13.9265 58.3078 13.9852 58.3959C14.5426 59.1996 13.0072 57.2296 13.6527 57.9648C13.7113 58.0236 13.7602 58.0822 13.8091 58.1411C13.7407 58.0333 13.6624 57.9352 13.594 57.8274C13.1832 57.21 12.8214 56.563 12.4986 55.8967C12.5866 56.1122 12.6649 56.3278 12.7529 56.5436C12.5475 56.0829 12.3617 55.6222 12.1661 55.1518C12.2737 55.3967 12.3813 55.6515 12.4986 55.8867C12.1563 54.9459 11.9021 53.9853 11.7162 53.0053C11.7162 53.1327 11.7358 53.2504 11.7456 53.3875C11.6967 52.9956 11.6478 52.6131 11.5891 52.2212C11.6282 52.4857 11.6674 52.7408 11.7162 53.0053C11.6282 51.8978 11.6282 50.7805 11.7162 49.6631C11.6674 49.9179 11.6282 50.1727 11.5891 50.4275C11.6576 49.9179 11.726 49.3983 11.7945 48.8887C11.7651 49.1435 11.7358 49.4083 11.7065 49.6631C11.9412 48.3694 12.2835 47.105 12.7627 45.8699C12.6551 46.1051 12.5475 46.3306 12.4497 46.5757C12.6453 46.115 12.8409 45.6446 13.0365 45.1839C12.9485 45.4191 12.8507 45.6446 12.7627 45.8699C13.0561 45.2428 13.3788 44.6251 13.7504 44.0372C13.8385 43.8999 13.9363 43.7529 14.0341 43.6058C13.9363 43.7235 13.8385 43.8313 13.7407 43.9488C13.3104 44.4488 14.6404 42.704 14.1514 43.4295C14.1123 43.4884 14.0732 43.547 14.0341 43.6058C14.2101 43.3999 14.3861 43.1943 14.572 42.9981C14.7578 42.8021 14.9827 42.5962 15.2077 42.4003C15.2272 42.3807 15.2565 42.371 15.2761 42.3414C15.3152 42.3022 15.3543 42.2632 15.3935 42.2336C15.6575 42.0081 16.0389 41.8025 15.7553 42.0278C16.1074 41.8122 16.4692 41.6162 16.8409 41.4299C16.5964 41.5181 16.3617 41.5966 16.1269 41.7044C16.5866 41.5084 17.056 41.3125 17.5157 41.1163C17.2908 41.2144 17.056 41.3222 16.8409 41.4299C17.6722 41.1262 18.5328 40.9106 19.413 40.744C19.1294 40.7636 18.836 40.8026 18.5426 40.8321C19.0609 40.7733 19.5695 40.7047 20.0878 40.6263C19.8628 40.6556 19.6281 40.6948 19.4032 40.734C20.8604 40.6066 22.3078 40.6459 23.7552 40.783C23.6379 40.7636 23.5303 40.744 23.4227 40.7244C23.8237 40.783 24.2247 40.8321 24.6257 40.891C24.3518 40.8518 24.0682 40.8222 23.7944 40.7929C26.5523 41.2241 29.2319 42.0181 31.8235 43.057L31.2467 42.8021C31.7062 42.9981 32.1757 43.1943 32.6353 43.3903C32.3714 43.2725 32.0974 43.1647 31.8335 43.057C35.2466 44.5762 38.4738 46.5069 41.5546 48.6046C42.4934 49.2416 43.4225 49.8983 44.3319 50.5746C44.6645 50.8197 44.9873 51.0745 45.3199 51.3194C45.3979 51.3783 45.4762 51.4468 45.5545 51.496L45.5742 51.5156C45.5742 51.5156 45.5742 51.5156 45.5936 51.5156C45.5936 51.5156 45.6001 51.5221 45.6132 51.535C45.6132 51.535 45.6328 51.5546 45.6425 51.5546C45.6522 51.5546 45.6621 51.5546 45.6621 51.5742C45.6815 51.5938 45.6915 51.5938 45.6915 51.5938C45.8381 51.7212 45.9751 51.829 46.1217 51.9468C46.9042 52.5741 47.6767 53.2208 48.4395 53.8678L47.9896 56.7493C41.9359 59.1996 35.5986 61.1502 29.1439 62.1402L29.1536 62.1695ZM70.6299 43.5666C70.5519 43.6255 70.4639 43.694 70.3856 43.7628C70.3269 43.8117 70.2583 43.851 70.19 43.9096C70.0726 43.998 69.965 44.0762 69.8477 44.1646C69.1239 44.7036 68.4101 45.2428 67.6766 45.7621C65.6228 47.2324 63.5298 48.6046 61.3783 49.9179C60.6545 49.2317 59.9114 48.5554 59.168 47.8987C58.9823 43.9684 58.7474 40.0381 58.4051 36.1178C58.0239 31.8835 57.6423 27.6395 58.0922 23.4054C58.3271 22.0234 58.6694 20.6807 59.1486 19.3575C59.5691 18.4362 60.058 17.5443 60.6349 16.7014C60.7231 16.5837 60.8208 16.4563 60.9088 16.3387L60.9284 16.3191C61.261 15.9172 61.6229 15.535 62.0139 15.1625C62.1801 14.9959 62.3464 14.8489 62.5127 14.7019C62.5127 14.7019 62.5323 14.7019 62.542 14.6823C62.5617 14.6627 62.5813 14.6529 62.6106 14.6235H62.63C62.63 14.6235 62.63 14.6235 62.6497 14.6039C62.8649 14.4373 63.3048 14.0746 63.5397 13.9178C64.2339 13.4669 64.9674 13.0651 65.7205 12.7024C66.8942 12.2516 68.1069 11.9183 69.3489 11.6929C70.6692 11.5655 71.9992 11.5655 73.3292 11.6733C74.6398 11.8889 75.9014 12.232 77.1434 12.6926C77.1434 12.6926 77.1434 12.6926 77.1628 12.6926C77.8866 13.0357 78.6007 13.4179 79.2949 13.859C79.4416 13.9472 79.5785 14.0452 79.7252 14.153C79.8328 14.2412 80.5566 14.7803 80.8205 15.0253C81.3194 15.486 81.7889 15.9761 82.2388 16.4759L82.405 16.6817C83.0699 17.6227 83.647 18.593 84.1359 19.6319C84.4099 20.3964 84.6251 21.1609 84.7814 21.9548C84.8694 22.9056 84.8694 23.8661 84.7814 24.8169C84.5468 26.0125 84.2142 27.1691 83.7937 28.3061C83.2755 29.4528 82.6787 30.5605 82.0138 31.6287C81.6323 32.2364 81.2411 32.8342 80.8305 33.4126C80.6642 33.6379 80.5076 33.8634 80.3413 34.079C80.3219 34.0986 80.312 34.1182 80.2926 34.1378C80.2339 34.2064 80.1947 34.2749 80.136 34.3437C80.0284 34.4908 79.8621 34.6867 79.8427 34.6867C78.0139 36.8919 75.9894 38.9404 73.8573 40.8518C72.8109 41.7926 71.7352 42.6943 70.6398 43.5765L70.6299 43.5666Z" fill="white"/>
</g>
</g>
<defs>
<clipPath id="clip0_274_27">
<rect width="446" height="109" fill="white"/>
</clipPath>
</defs>
</svg>
