<svg width="184" height="45" viewBox="0 0 184 45" fill="none" xmlns="http://www.w3.org/2000/svg">
<g clip-path="url(#clip0_273_14)">
<path d="M47.9568 30.5948C47.8237 32.6868 47.7067 34.0747 47.6139 34.7545C47.5171 35.4343 47.2951 36.021 46.9401 36.5147C46.585 37.0043 46.004 37.3482 45.1971 37.5384C44.4547 37.7124 43.7526 37.68 43.0869 37.4413C42.4252 37.2025 41.9249 36.7696 41.5941 36.1343C41.2794 35.499 41.0292 34.5157 40.8476 33.1845C40.6661 31.8532 40.6015 29.3161 40.658 25.5772C40.7145 21.8343 40.8355 19.7262 41.0252 19.2527C41.2148 18.7752 41.5093 18.3747 41.9007 18.0388C42.2961 17.707 42.8247 17.4844 43.4904 17.3711C44.2973 17.2619 45.0639 17.355 45.7902 17.6584C46.5164 17.9579 47.0611 18.4515 47.4243 19.1313C47.8197 19.973 48.0416 21.5673 48.09 23.9223C48.1384 26.2773 48.09 28.4987 47.9609 30.5907L47.9568 30.5948ZM44.5071 9.76392C45.1688 9.76392 45.774 9.92577 46.3228 10.2495C46.8675 10.5732 47.3072 11.0062 47.6381 11.5443C47.9689 12.0825 48.1344 12.6773 48.1344 13.3288C48.1344 13.9803 47.9689 14.5953 47.6381 15.1375C47.3072 15.6757 46.8675 16.1046 46.3228 16.4202C45.7781 16.7359 45.1729 16.8977 44.5071 16.8977C43.8414 16.8977 43.2362 16.7399 42.6794 16.4202C42.1266 16.1046 41.6869 15.6757 41.3641 15.1375C41.0413 14.5994 40.8759 13.9964 40.8759 13.3288C40.8759 12.6611 41.0373 12.0825 41.3641 11.5443C41.6869 11.0062 42.1266 10.5732 42.6794 10.2495C43.2322 9.92577 43.8414 9.76392 44.5071 9.76392ZM41.8765 34.5643C41.9411 34.8799 42.0661 35.1996 42.2558 35.5152C42.4454 35.8308 42.6875 36.1019 42.978 36.3245C43.2685 36.547 43.6074 36.6887 43.9867 36.7534C44.3821 36.7858 44.7533 36.7453 45.1002 36.6361C45.4472 36.5268 45.7337 36.3973 45.9556 36.2557L46.2865 36.0412C45.5602 36.2638 44.9389 36.3447 44.4264 36.2921C43.914 36.2355 43.4864 36.1019 43.1474 35.8875C42.8085 35.673 42.5342 35.4383 42.3284 35.1874C42.1226 34.9325 41.9733 34.7262 41.8765 34.5683V34.5643ZM47.0208 20.5597C46.9562 20.2279 46.8352 19.9042 46.6536 19.5967C46.4721 19.2891 46.234 19.018 45.9435 18.7874C45.649 18.5567 45.306 18.4192 44.9106 18.3706C44.5152 18.3221 44.1481 18.3585 43.8091 18.4758C43.4702 18.5932 43.1878 18.7186 42.9659 18.844L42.635 19.0585C43.3451 18.8359 43.9584 18.7591 44.4708 18.8198C44.9832 18.8845 45.4109 19.0221 45.7498 19.2365C46.0888 19.451 46.3631 19.6816 46.5689 19.9244C46.7747 20.1713 46.9239 20.3817 47.0208 20.5557V20.5597ZM47.3516 12.6409C47.2871 12.3091 47.166 11.9854 46.9845 11.6779C46.8029 11.3703 46.5649 11.0992 46.2744 10.8686C45.9839 10.6379 45.6369 10.5004 45.2415 10.4518C44.8461 10.4032 44.4628 10.4275 44.0916 10.5246C43.7204 10.6218 43.4178 10.7229 43.1797 10.8322L42.8005 10.9981C43.5106 10.7917 44.1319 10.7229 44.6605 10.7957C45.189 10.8686 45.6369 11.0183 46 11.2489C46.3631 11.4796 46.6577 11.7264 46.8755 11.9854C47.0974 12.2484 47.2548 12.4669 47.3476 12.6409H47.3516Z" fill="#00A09A"/>
<path d="M57.261 20.2522C58.2898 19.366 59.3631 18.7429 60.4847 18.3868C61.6064 18.0307 62.841 18.0509 64.1846 18.4475C65.2901 18.8278 66.1898 19.4065 66.8878 20.1834C67.5818 20.9603 68.0983 21.8586 68.4291 22.8823C68.76 23.9061 68.9375 24.9784 68.9617 26.1033C68.9859 27.2282 68.885 28.3328 68.6672 29.4213C68.4453 30.5058 68.1225 31.5012 67.6948 32.4035C67.1582 33.5446 66.4279 34.5522 65.5039 35.4221C64.58 36.2962 63.3332 36.9314 61.7718 37.3361C60.2063 37.7407 58.1365 37.5789 55.5583 36.8465C55.0378 37.3846 54.4528 37.7367 53.8032 37.9066C53.1536 38.0725 52.5444 38.0442 51.9674 37.8216C51.3904 37.5991 50.9506 37.1702 50.6521 36.5389C50.2405 35.6204 49.9581 34.3215 49.7967 32.6382C49.6394 30.959 49.5627 27.7137 49.5708 22.9026C49.5788 18.0914 49.5869 15.1942 49.595 14.2109C49.603 13.2276 49.7967 12.3131 50.176 11.4634C50.5552 10.6137 51.4106 10.1119 52.738 9.95409C54.3035 9.86103 55.4131 10.1564 56.0707 10.8443C56.7244 11.5322 57.0875 12.4386 57.148 13.5554C57.2126 14.6722 57.2489 16.9058 57.265 20.2481L57.261 20.2522ZM50.5028 34.9447C50.5673 35.2765 50.6763 35.6002 50.8336 35.9077C50.991 36.2152 51.2008 36.4823 51.4631 36.7048C51.7253 36.9274 52.0521 37.069 52.4475 37.1338C52.734 37.1661 53.0043 37.1459 53.2666 37.0731C53.5288 37.0002 53.7588 36.9072 53.9646 36.7858C54.1704 36.6684 54.3358 36.5592 54.4609 36.4661L54.6263 36.3245C53.9485 36.5308 53.3715 36.6199 52.8954 36.5875C52.4233 36.5551 52.032 36.4499 51.7213 36.2678C51.4146 36.0857 51.1685 35.8834 50.987 35.6609C50.8054 35.4383 50.6682 35.24 50.5714 35.066C50.5391 35.0175 50.5149 34.9811 50.4988 34.9487L50.5028 34.9447ZM52.7542 10.5489C53.6378 10.7229 54.3277 11.0709 54.8159 11.5969C55.3041 12.1189 55.6713 12.7178 55.9053 13.3935C56.1433 14.0693 56.3088 14.7208 56.4016 15.356C56.4016 14.7855 56.3814 14.2595 56.341 13.7739C56.3007 13.2924 56.22 12.8513 56.0909 12.4548C55.9658 12.0582 55.7681 11.7183 55.4978 11.431C55.2275 11.1437 54.8724 10.9293 54.4326 10.7755C53.9888 10.6258 53.428 10.5489 52.7501 10.5489H52.7542ZM56.8696 30.4248C56.797 31.7075 56.8535 32.4925 57.035 32.7798C57.2166 33.0671 57.5434 33.1764 58.0195 33.1116C58.778 32.97 59.468 32.3024 60.0934 31.1127C60.7187 29.9231 61.098 28.7375 61.2311 27.5559C61.3643 26.3744 61.3643 25.557 61.2311 25.1079C61.098 24.6547 60.8398 24.3269 60.4605 24.1205C60.0974 23.9789 59.6616 24.0153 59.1573 24.2257C58.653 24.4402 58.2212 24.8651 57.8662 25.4963C57.5111 26.1316 57.2731 26.7871 57.1561 27.471C57.0391 28.1507 56.9422 29.134 56.8696 30.4208V30.4248ZM65.9397 33.0874C64.8342 34.2608 63.6601 35.0863 62.4174 35.5597C61.1747 36.0331 59.9481 36.2355 58.7296 36.1545C59.1734 36.3771 59.6939 36.4985 60.2951 36.5227C60.8963 36.547 61.5297 36.4459 62.2035 36.2274C62.8733 36.0048 63.5309 35.6366 64.1725 35.1227C64.814 34.6088 65.4031 33.929 65.9397 33.0914V33.0874ZM67.0533 22.1014C67.0533 22.1014 67.0452 22.0609 67.0291 22.0285C66.9645 21.8546 66.8354 21.5754 66.6377 21.195C66.44 20.8146 66.1414 20.4181 65.7379 20.0053C65.3345 19.5926 64.8019 19.2689 64.1362 19.0302C63.5834 18.84 63.067 18.7429 62.5828 18.7348C62.0986 18.7267 61.675 18.7672 61.3038 18.8521C60.9326 18.9411 60.6421 19.0302 60.4403 19.1273L60.1095 19.2689C61.6104 19.014 62.9177 19.1192 64.0313 19.5764C65.1448 20.0377 66.1535 20.8753 67.0533 22.0973V22.1014Z" fill="#00A09A"/>
<path d="M78.1245 20.2522C79.1534 19.366 80.2266 18.7429 81.3482 18.3868C82.4699 18.0307 83.7045 18.0509 85.0481 18.4475C86.1536 18.8278 87.0534 19.4065 87.7514 20.1834C88.4453 20.9603 88.9618 21.8586 89.2926 22.8823C89.6235 23.9061 89.801 24.9784 89.8252 26.1033C89.8494 27.2282 89.7486 28.3328 89.5307 29.4213C89.3088 30.5058 88.986 31.5012 88.5583 32.4035C88.0217 33.5446 87.2914 34.5522 86.3675 35.4221C85.4435 36.2962 84.1968 36.9314 82.6353 37.3361C81.0698 37.7407 79 37.5789 76.4218 36.8465C75.9014 37.3846 75.3163 37.7367 74.6667 37.9066C74.0171 38.0725 73.4079 38.0442 72.8309 37.8216C72.254 37.5991 71.8142 37.1702 71.5156 36.5389C71.1041 35.6204 70.8216 34.3215 70.6602 32.6382C70.5029 30.959 70.4262 27.7137 70.4343 22.9026C70.4424 18.0914 70.4504 15.1942 70.4585 14.2109C70.4666 13.2276 70.6602 12.3131 71.0395 11.4634C71.4188 10.6137 72.2741 10.1119 73.6016 9.95409C75.167 9.86103 76.2766 10.1564 76.9342 10.8443C77.5879 11.5322 77.951 12.4386 78.0115 13.5554C78.0761 14.6722 78.1124 16.9058 78.1285 20.2481L78.1245 20.2522ZM71.3663 34.9447C71.4309 35.2765 71.5398 35.6002 71.6972 35.9077C71.8545 36.2152 72.0643 36.4823 72.3266 36.7048C72.5888 36.9274 72.9156 37.069 73.3111 37.1338C73.5975 37.1661 73.8678 37.1459 74.1301 37.0731C74.3924 37.0002 74.6223 36.9072 74.8281 36.7858C75.0339 36.6684 75.1993 36.5592 75.3244 36.4661L75.4898 36.3245C74.812 36.5308 74.235 36.6199 73.7589 36.5875C73.2868 36.5551 72.8955 36.4499 72.5848 36.2678C72.2782 36.0857 72.032 35.8834 71.8505 35.6609C71.6689 35.4383 71.5317 35.24 71.4349 35.066C71.4026 35.0175 71.3784 34.9811 71.3623 34.9487L71.3663 34.9447ZM73.6177 10.5489C74.5013 10.7229 75.1912 11.0709 75.6794 11.5969C76.1676 12.1189 76.5348 12.7178 76.7688 13.3935C77.0069 14.0693 77.1723 14.7208 77.2651 15.356C77.2651 14.7855 77.2449 14.2595 77.2046 13.7739C77.1642 13.2924 77.0835 12.8513 76.9544 12.4548C76.8293 12.0582 76.6316 11.7183 76.3613 11.431C76.091 11.1437 75.7359 10.9293 75.2961 10.7755C74.8523 10.6258 74.2915 10.5489 73.6137 10.5489H73.6177ZM77.7331 30.4248C77.6605 31.7075 77.717 32.4925 77.8985 32.7798C78.0801 33.0671 78.4069 33.1764 78.883 33.1116C79.6415 32.97 80.3315 32.3024 80.9569 31.1127C81.5823 29.9231 81.9615 28.7375 82.0947 27.5559C82.2278 26.3744 82.2278 25.557 82.0947 25.1079C81.9615 24.6547 81.7033 24.3269 81.324 24.1205C80.9609 23.9789 80.5252 24.0153 80.0208 24.2257C79.5165 24.4402 79.0848 24.8651 78.7297 25.4963C78.3746 26.1316 78.1366 26.7871 78.0196 27.471C77.9026 28.1507 77.8057 29.134 77.7331 30.4208V30.4248ZM86.8032 33.0874C85.6977 34.2608 84.5236 35.0863 83.2809 35.5597C82.0382 36.0331 80.8116 36.2355 79.5931 36.1545C80.037 36.3771 80.5574 36.4985 81.1586 36.5227C81.7598 36.547 82.3932 36.4459 83.067 36.2274C83.7368 36.0048 84.3945 35.6366 85.036 35.1227C85.6775 34.6088 86.2666 33.929 86.8032 33.0914V33.0874ZM87.9168 22.1014C87.9168 22.1014 87.9087 22.0609 87.8926 22.0285C87.828 21.8546 87.6989 21.5754 87.5012 21.195C87.3035 20.8146 87.0049 20.4181 86.6015 20.0053C86.198 19.5926 85.6654 19.2689 84.9997 19.0302C84.4469 18.84 83.9305 18.7429 83.4463 18.7348C82.9621 18.7267 82.5385 18.7672 82.1673 18.8521C81.7961 18.9411 81.5056 19.0302 81.3039 19.1273L80.973 19.2689C82.4739 19.014 83.7812 19.1192 84.8948 19.5764C86.0084 20.0377 87.017 20.8753 87.9168 22.0973V22.1014Z" fill="#00A09A"/>
<path d="M99.202 37.7975C96.64 37.7975 94.6509 36.9558 93.2266 35.2765C91.9314 33.7551 91.2819 31.6226 91.2819 28.8792C91.2819 28.3248 91.3343 27.5358 91.4352 26.512C91.536 25.4883 91.9032 24.3189 92.5246 22.9917C93.1499 21.6685 94.0537 20.5477 95.2399 19.6291C96.7409 18.5042 98.2418 17.9418 99.7427 17.9418C100.707 17.9418 101.671 18.1724 102.636 18.6297C103.6 19.0909 104.496 19.8233 105.327 20.8309C106.158 21.8385 106.799 23.0079 107.259 24.3391C107.687 25.5773 107.901 26.86 107.901 28.1913C107.901 29.8706 107.586 31.4325 106.953 32.877C105.484 36.1587 102.898 37.7975 99.198 37.7975H99.202ZM92.8231 32.9701C92.9805 33.6823 93.392 34.3782 94.0578 35.0499C94.7235 35.7257 95.5022 36.2598 96.406 36.6564C97.3057 37.0529 98.1853 37.2026 99.0366 37.1096C98.5 37.1419 97.919 37.0246 97.2936 36.7656C96.6682 36.5026 96.059 36.1546 95.4659 35.7176C94.8728 35.2806 94.3442 34.8193 93.8762 34.3256C93.4082 33.836 93.0571 33.3828 92.8191 32.9701H92.8231ZM97.1403 26.2409C96.6803 26.8115 96.4382 27.467 96.406 28.2034C96.3737 28.9399 96.5028 29.6278 96.7973 30.259C97.0878 30.8943 97.5034 31.3434 98.04 31.6146C97.5357 31.0278 97.1887 30.433 97.0071 29.8301C96.8256 29.2272 96.753 28.6243 96.7933 28.0254C96.8336 27.4225 96.9466 26.8277 97.1363 26.2409H97.1403ZM100.199 32.1851C100.973 32.0758 101.542 31.4325 101.905 30.259C102.111 29.563 102.212 28.8023 102.212 27.9768L102.188 27.5034C102.063 26.2045 101.72 25.2132 101.167 24.5293C100.788 24.0518 100.312 23.8171 99.7427 23.8171C99.3957 23.8171 99.0689 23.9426 98.7703 24.1975C98.2337 24.7033 97.8222 25.4721 97.5357 26.504C97.3783 27.0421 97.2976 27.5439 97.2976 28.0011C97.2976 28.8428 97.4873 29.6966 97.8665 30.5706C98.3386 31.6469 99.0447 32.1891 99.9767 32.1891H100.191L100.199 32.1851ZM104.75 21.8668V21.8425C104.701 21.7171 104.572 21.4581 104.358 21.0696C104.145 20.6812 103.818 20.2725 103.374 19.8436C102.93 19.4147 102.361 19.0667 101.667 18.7956C101.115 18.6054 100.598 18.5083 100.114 18.5083C99.6297 18.5083 99.2061 18.5487 98.8349 18.6256C98.4637 18.7065 98.1732 18.7915 97.9715 18.8886L97.6406 19.0303C99.1577 18.7753 100.497 18.8765 101.659 19.3256C102.821 19.7788 103.854 20.6205 104.754 21.8587L104.75 21.8668Z" fill="#00A09A"/>
<path d="M128.054 34.7545C127.958 35.6407 127.691 36.2881 127.247 36.6927C126.804 37.0974 126.291 37.3523 125.706 37.4535C125.121 37.5546 124.56 37.591 124.024 37.5587C123.342 37.5263 122.809 37.324 122.422 36.9517C122.035 36.5794 121.756 36.0777 121.591 35.4424C121.425 34.8071 121.32 33.6053 121.284 31.829C121.244 30.0526 121.183 28.6525 121.107 27.6207C121.026 26.5929 120.816 25.7108 120.465 24.9825C120.118 24.2541 119.658 23.979 119.089 24.161C118.52 24.3431 118.105 24.7235 117.846 25.3021C117.588 25.8808 117.435 26.6334 117.395 27.56C117.354 28.4866 117.431 30.5382 117.621 33.7065C117.653 34.7667 117.391 35.6569 116.838 36.369C116.285 37.0812 115.438 37.5182 114.3 37.676C113.194 37.7853 112.319 37.587 111.681 37.0812C111.04 36.5754 110.58 35.8835 110.293 35.0135C110.007 34.1435 109.825 33.2209 109.749 32.2538C109.462 29.2433 109.41 26.2207 109.583 23.194C109.599 22.5263 109.68 21.9922 109.833 21.5875C109.983 21.1829 110.273 20.7418 110.697 20.2684C111.121 19.795 111.673 19.4632 112.343 19.2811C113.017 19.099 113.775 19.1354 114.631 19.3863C115.389 18.7834 116.059 18.3504 116.644 18.0914C117.229 17.8284 118.012 17.6585 118.992 17.5816C120.574 17.44 121.913 17.614 123.011 18.1036C124.108 18.5932 125.008 19.3094 125.702 20.2441C126.396 21.1788 126.937 22.2552 127.316 23.4651C127.695 24.679 127.953 25.9536 128.087 27.293C128.22 28.6323 128.276 29.9433 128.252 31.2261C128.228 32.5088 128.159 33.6822 128.05 34.7464L128.054 34.7545ZM110.915 22.154C110.995 22.061 111.08 21.9477 111.177 21.8222C111.318 21.5835 111.52 21.3488 111.782 21.1222C112.045 20.8916 112.42 20.7135 112.908 20.5881C113.396 20.4626 114.062 20.4545 114.901 20.5638C114.3 20.1996 113.703 20.0297 113.11 20.0539C112.517 20.0782 112.02 20.2725 111.617 20.6366C111.213 21.0008 110.979 21.5066 110.919 22.1581L110.915 22.154ZM111.318 34.9204C111.383 35.2522 111.508 35.5759 111.698 35.8835C111.887 36.191 112.129 36.4621 112.42 36.6927C112.71 36.9234 113.049 37.061 113.428 37.1095C113.824 37.1581 114.195 37.1217 114.542 37.0043C114.889 36.887 115.175 36.7615 115.397 36.6361L115.728 36.4216C115.002 36.6442 114.381 36.7251 113.868 36.6604C113.356 36.5956 112.928 36.458 112.589 36.2436C112.25 36.0291 111.976 35.7985 111.77 35.5557C111.564 35.3089 111.415 35.0985 111.318 34.9245V34.9204ZM125.375 21.5349C125.375 21.5349 125.367 21.4945 125.351 21.4621C125.287 21.2881 125.149 21.0089 124.936 20.6285C124.722 20.2482 124.403 19.8516 123.975 19.4389C123.548 19.0262 122.987 18.7024 122.293 18.4637C121.708 18.2735 121.159 18.1764 120.647 18.1683C120.134 18.1602 119.678 18.2007 119.283 18.2857C118.887 18.3747 118.581 18.4637 118.359 18.5608L118.004 18.7024C119.602 18.4475 120.99 18.5527 122.176 19.01C123.362 19.4713 124.427 20.3089 125.375 21.5309V21.5349ZM122.269 35.0661C122.333 35.7176 122.567 36.2234 122.979 36.5875C123.39 36.9517 123.891 37.1459 124.484 37.1702C125.077 37.1945 125.674 37.0164 126.275 36.6361C125.42 36.7453 124.754 36.7413 124.27 36.6239C123.786 36.5066 123.414 36.3326 123.156 36.102C122.894 35.8713 122.684 35.6366 122.527 35.4019C122.446 35.2765 122.361 35.1632 122.265 35.0701L122.269 35.0661Z" fill="#00A09A"/>
<path d="M135.43 17.4441C136.487 17.2701 137.532 17.2903 138.561 17.5047C139.59 17.7192 140.51 18.1077 141.325 18.6701C142.14 19.2326 142.749 19.9447 143.148 20.8107C143.552 21.6766 143.649 22.6599 143.447 23.7726C143.366 24.153 143.164 24.5172 142.842 24.8651C142.519 25.2131 142.103 25.4438 141.599 25.553C141.095 25.6623 140.534 25.5449 139.916 25.197C139.727 25.0553 139.594 24.8854 139.513 24.6871C139.432 24.4888 139.372 24.2784 139.323 24.0559C139.275 23.7564 139.178 23.4772 139.029 23.2223C138.88 22.9674 138.573 22.8015 138.117 22.7246C137.629 22.676 137.278 22.7813 137.072 23.0321C136.866 23.2871 136.786 23.5865 136.834 23.9345C136.882 24.2825 137.286 24.7235 138.044 25.2536C138.803 25.7837 139.61 26.3785 140.461 27.0381C141.317 27.6976 142.027 28.5393 142.596 29.5711C143.164 30.6029 143.346 31.7278 143.14 32.9458C142.934 34.1678 142.362 35.1673 141.421 35.9523C140.481 36.7373 139.307 37.2512 137.899 37.498C136.491 37.7448 134.982 37.6599 133.372 37.2471C132.472 37.0084 131.738 36.5633 131.169 35.9037C130.6 35.2482 130.225 34.4956 130.043 33.658C129.862 32.8163 129.914 32.003 130.197 31.2099C130.435 30.6394 130.806 30.2145 131.31 29.9393C131.815 29.6601 132.392 29.6035 133.041 29.7613C133.421 29.8705 133.723 30.085 133.953 30.4047C134.183 30.7243 134.401 31.1897 134.607 31.8088C134.813 32.4279 135.168 32.7516 135.672 32.7839C136.176 32.8163 136.43 32.6302 136.43 32.2255C136.43 31.8209 136.326 31.4931 136.124 31.2382C135.918 30.9873 135.341 30.4815 134.393 29.7289C133.445 28.9763 132.71 28.3693 132.19 27.908C131.669 27.4508 131.226 26.9329 130.863 26.3623C130.499 25.7918 130.229 25.1039 130.056 24.2946C129.834 23.2183 129.902 22.2026 130.257 21.2517C130.612 20.3008 131.23 19.4875 132.105 18.8158C132.981 18.1441 134.094 17.6868 135.438 17.4481L135.43 17.4441ZM130.689 33.6135C130.689 33.6135 130.697 33.6539 130.713 33.6863C130.778 33.8603 130.907 34.1395 131.105 34.5199C131.302 34.9002 131.601 35.2927 132.004 35.6974C132.408 36.102 132.94 36.4298 133.606 36.6847C134.159 36.8749 134.675 36.972 135.16 36.9801C135.64 36.9882 136.067 36.9477 136.439 36.8627C136.81 36.7777 137.096 36.6847 137.302 36.5876L137.633 36.4459C136.132 36.7009 134.825 36.5957 133.711 36.1384C132.597 35.6771 131.589 34.8395 130.689 33.6175V33.6135ZM142.426 20.9644C142.128 20.2199 141.611 19.5765 140.885 19.0383C140.159 18.5002 139.319 18.136 138.371 17.9458C137.423 17.7556 136.451 17.7961 135.454 18.0632C136.309 18.047 137.165 18.1319 138.028 18.314C138.888 18.4961 139.699 18.8036 140.457 19.2407C141.216 19.6777 141.873 20.2523 142.426 20.9644ZM138.823 26.5768L142.188 30.5948C141.95 29.9596 141.575 29.304 141.062 28.6202C140.55 27.9404 139.804 27.2566 138.823 26.5768Z" fill="#00A09A"/>
<path d="M154.256 21.7251L156.507 18.5163C157.157 17.5169 157.952 16.9099 158.9 16.6955C159.848 16.481 160.78 16.74 161.696 17.4683C162.39 18.0712 162.794 18.7349 162.906 19.4673C163.015 20.1956 162.935 20.928 162.656 21.6685C162.378 22.4049 161.01 24.5576 158.541 28.1225C160.421 31.7683 161.414 33.9291 161.514 34.6008C161.615 35.2725 161.551 35.8471 161.313 36.3245C161.059 36.802 160.699 37.1379 160.235 37.3361C159.767 37.5344 159.267 37.6153 158.731 37.587C158.194 37.5547 157.69 37.4292 157.213 37.2067C156.818 37.0165 155.805 35.932 154.179 33.9493C152.695 35.7864 151.694 36.883 151.182 37.2309C150.669 37.5789 150.112 37.7691 149.511 37.8015C148.672 37.8177 147.926 37.676 147.272 37.3726C146.614 37.0731 146.17 36.6159 145.932 36.0049C145.694 35.3939 145.791 34.6291 146.219 33.7106L149.822 28.1953C148.002 25.375 146.759 23.2871 146.09 21.9315C145.416 20.576 145.246 19.5401 145.581 18.8279C145.912 18.1158 146.368 17.6423 146.945 17.4117C147.522 17.181 148.131 17.0839 148.769 17.1163C149.41 17.1487 149.983 17.3308 150.488 17.6626C150.992 17.9944 152.251 19.3499 154.256 21.7292V21.7251ZM149.749 17.8487C149.463 17.6909 149.128 17.5938 148.741 17.5614C148.353 17.529 147.97 17.5857 147.591 17.7273C147.211 17.8689 146.876 18.1077 146.582 18.4395C146.287 18.7713 146.102 19.2083 146.025 19.7465C146.356 19.1921 146.711 18.7794 147.09 18.5083C147.47 18.2371 147.877 18.0591 148.313 17.9741C148.749 17.8892 149.225 17.8446 149.745 17.8446L149.749 17.8487ZM150.056 36.7737C149.535 36.7737 149.055 36.7292 148.624 36.6442C148.188 36.5592 147.78 36.3771 147.401 36.1101C147.022 35.843 146.667 35.4222 146.336 34.8517C146.433 35.406 146.622 35.8511 146.905 36.1829C147.191 36.5147 147.522 36.7494 147.901 36.883C148.281 37.0165 148.664 37.0731 149.051 37.0489C149.439 37.0246 149.773 36.9356 150.06 36.7737H150.056ZM161.059 34.3499C160.853 34.8274 160.623 35.2482 160.373 35.6205C160.118 35.9927 159.792 36.2962 159.388 36.535C158.985 36.7737 158.468 36.9315 157.835 37.0084C158.371 37.15 158.848 37.1541 159.259 37.0205C159.671 36.887 160.018 36.6725 160.304 36.3772C160.591 36.0858 160.792 35.754 160.921 35.3898C161.046 35.0257 161.095 34.6777 161.063 34.3418L161.059 34.3499ZM162.221 20.0823C162.253 19.7505 162.204 19.4025 162.079 19.0343C161.954 18.6701 161.748 18.3383 161.462 18.0348C161.176 17.7354 160.825 17.5209 160.405 17.3914C159.985 17.266 159.509 17.2741 158.973 17.4157C159.622 17.4967 160.147 17.6545 160.55 17.8932C160.954 18.1319 161.28 18.4314 161.535 18.7955C161.789 19.1597 162.019 19.5886 162.221 20.0783V20.0823Z" fill="#00A09A"/>
<path d="M164.508 25.9455C164.593 23.546 164.694 21.8789 164.803 20.9523C164.912 20.0257 165.13 19.2123 165.456 18.5163C165.779 17.8204 166.203 17.355 166.723 17.1244C167.244 16.8937 167.845 16.7885 168.527 16.8047C169.205 16.8209 169.882 17.0515 170.552 17.4926C171.222 17.9377 171.734 18.5406 172.081 19.3013C173.724 18.399 175.228 17.8972 176.596 17.8042C177.964 17.7111 179.158 17.9418 180.175 18.5042C181.196 19.0667 182.019 19.8759 182.652 20.928C183.286 21.9841 183.693 23.2061 183.883 24.6021C184.073 25.9981 184.016 27.4872 183.718 29.0734C183.447 30.437 182.999 31.7278 182.366 32.9498C181.732 34.1719 180.95 35.1875 180.018 36.0049C179.086 36.8223 178.049 37.2997 176.911 37.4414C176.169 37.5385 175.394 37.4454 174.587 37.1702C173.78 36.8951 172.957 36.3893 172.122 35.6609C172.138 37.4818 172.106 38.9426 172.029 40.0351C171.948 41.1276 171.726 42.1109 171.363 42.9849C171.141 43.4462 170.798 43.8549 170.33 44.211C169.862 44.5671 169.213 44.8179 168.373 44.9596C167.534 45.1012 166.752 44.8989 166.025 44.3526C165.299 43.8063 164.851 42.904 164.686 41.6537C164.52 40.4033 164.423 38.0726 164.399 34.6615C164.375 31.2544 164.407 28.3491 164.496 25.9455H164.508ZM169.071 44.2433C168.188 44.0694 167.498 43.7214 167.01 43.1953C166.522 42.6733 166.158 42.0745 165.932 41.3987C165.702 40.723 165.533 40.0715 165.424 39.4362C165.424 40.0068 165.444 40.5328 165.485 41.0184C165.525 41.4999 165.61 41.9409 165.747 42.3375C165.88 42.734 166.082 43.0739 166.352 43.3612C166.622 43.6485 166.977 43.863 167.417 44.0167C167.861 44.1665 168.414 44.2433 169.076 44.2433H169.071ZM170.968 19.5401C170.903 19.2245 170.794 18.9048 170.637 18.5892C170.48 18.2736 170.266 18.0025 169.995 17.7799C169.725 17.5573 169.402 17.4238 169.023 17.3753C168.72 17.3267 168.442 17.3429 168.18 17.4238C167.918 17.5047 167.684 17.5978 167.482 17.7111C167.276 17.8204 167.119 17.9256 167.006 18.0186L166.816 18.1603C167.494 17.9539 168.071 17.873 168.547 17.9094C169.023 17.9498 169.414 18.0551 169.721 18.2291C170.028 18.403 170.278 18.6054 170.468 18.836C170.657 19.0667 170.798 19.269 170.895 19.443C170.911 19.4753 170.936 19.5077 170.968 19.536V19.5401ZM172.033 30.1457C172.049 30.6677 172.15 31.0602 172.34 31.3232C172.529 31.5862 172.868 31.6671 173.36 31.5741C173.772 31.4648 174.2 31.1209 174.639 30.5503C175.079 29.9798 175.475 29.1948 175.814 28.1953C176.152 27.1959 176.269 26.1721 176.156 25.116C176.044 24.0599 175.721 23.3599 175.184 23.0119C174.458 22.9026 173.845 23.1333 173.348 23.7119C172.852 24.2906 172.497 25.0351 172.291 25.9455C172.085 26.856 171.989 27.6531 171.997 28.337C172.005 29.0167 172.017 29.6197 172.033 30.1457ZM181.373 33.2129C180.474 34.4511 179.465 35.2927 178.351 35.7459C177.238 36.1991 175.931 36.3043 174.43 36.0656L174.736 36.1829C174.958 36.28 175.253 36.3691 175.624 36.4581C175.995 36.5471 176.423 36.5835 176.903 36.5754C177.383 36.5673 177.895 36.4783 178.432 36.3003C179.098 36.0453 179.634 35.7135 180.046 35.3008C180.458 34.8881 180.76 34.4915 180.958 34.1112C181.156 33.7308 181.277 33.4597 181.325 33.3019C181.341 33.2533 181.357 33.221 181.373 33.2048V33.2129ZM182.584 21.4176C182.063 20.5598 181.478 19.88 180.829 19.3742C180.179 18.8684 179.525 18.5042 178.86 18.2817C178.194 18.0591 177.565 17.9579 176.963 17.9741C176.362 17.9903 175.842 18.1158 175.398 18.3545C176.616 18.2736 177.843 18.4718 179.086 18.9493C180.324 19.4268 181.49 20.2482 182.584 21.4217V21.4176Z" fill="#00A09A"/>
<path d="M36.1472 17.9215C37.874 15.8942 39.3265 13.5595 39.6856 10.8686C40.1859 7.15401 38.33 3.60532 35.082 1.48906C34.3477 1.01158 33.5327 0.663591 32.6894 0.432946C29.6795 -0.384426 26.7705 -0.0607144 24.0228 1.42431C23.2159 1.86132 22.4775 2.42782 21.8723 3.11571C19.0681 6.30832 18.9148 10.1605 19.2255 13.9277C19.278 14.5508 19.3264 15.178 19.3708 15.8052C19.1448 15.6515 18.9148 15.5017 18.6808 15.352C16.7522 14.13 14.6622 13.086 12.4472 12.5034C10.3652 11.9611 8.04929 11.7467 5.96334 12.386C4.77712 12.7461 3.69985 13.3571 2.79607 14.2028C1.79546 15.1376 1.17007 16.3272 0.673799 17.5856C-0.16946 19.7383 -0.258224 22.3725 0.601174 24.5293C1.08131 25.7351 1.71073 26.8195 2.62661 27.7542C3.58688 28.7254 4.73274 29.389 5.99158 29.8907C8.87641 31.048 12.2333 30.5988 15.1787 29.9271C16.8289 29.5508 18.4468 29.0572 20.0284 28.4664C20.0809 29.652 20.1293 30.8335 20.1898 32.011C20.2624 33.5446 20.3351 35.0742 20.4117 36.6078C20.4722 37.8581 21.4729 39.068 22.8043 39.0073C24.051 38.9506 25.2655 37.9512 25.1969 36.6078C25.0396 33.3099 24.8822 30.0081 24.7248 26.7103C26.2701 28.2964 27.7549 29.9433 29.1792 31.6266C29.8812 32.4602 30.5752 33.3018 31.249 34.1556C31.3257 34.2568 31.3983 34.3499 31.475 34.447C31.483 34.4591 31.4992 34.4713 31.5113 34.4915C31.5113 34.4915 31.5193 34.4996 31.5193 34.5036C31.5193 34.5117 31.5274 34.5198 31.5395 34.5279C31.5395 34.5279 31.5395 34.536 31.5476 34.54C31.5678 34.5724 31.5879 34.6007 31.6121 34.6331C31.6121 34.6331 31.6121 34.6331 31.6202 34.6412C31.7291 34.7869 31.8502 34.9325 31.9632 35.0782C32.3223 35.5516 32.6733 36.0291 33.0203 36.5106C33.3955 37.0286 33.8111 37.4373 34.4486 37.6153C35.0215 37.7731 35.7841 37.7003 36.2924 37.3725C37.293 36.7251 37.9346 35.1753 37.1518 34.0868C34.6099 30.5705 31.83 27.2039 28.8282 24.0599C29.4011 23.6916 29.9619 23.3032 30.5147 22.9026C32.5482 21.4338 34.5212 19.8314 36.1512 17.9093L36.1472 17.9215ZM12.0275 25.6663C12.1082 25.6582 12.1849 25.6501 12.2656 25.642C12.0558 25.6703 11.8419 25.6987 11.6321 25.727C11.7653 25.7068 11.8984 25.6906 12.0316 25.6663C11.0027 25.7958 9.96579 25.8322 8.9329 25.727C9.06201 25.7513 9.18709 25.7715 9.32023 25.7877C9.11043 25.7594 8.89659 25.731 8.68678 25.7027C8.77151 25.7108 8.8522 25.7229 8.93693 25.727C8.42856 25.642 7.93632 25.5125 7.44812 25.3345C7.52881 25.3749 7.60951 25.4154 7.69424 25.4478C7.5046 25.3669 7.31497 25.2859 7.1213 25.209C7.23024 25.2536 7.33918 25.294 7.44812 25.3345C7.14148 25.1929 6.84291 25.027 6.56451 24.8368C6.56451 24.8368 6.55241 24.8287 6.5403 24.8206C6.60889 24.8853 6.621 24.9056 6.45154 24.7639C6.41523 24.7356 6.38295 24.7032 6.35067 24.6749C6.3426 24.6749 6.3426 24.6668 6.33857 24.6668C6.3305 24.6587 6.32243 24.6547 6.31436 24.6506C6.32243 24.6506 6.32646 24.6587 6.33857 24.6628C6.22963 24.5657 6.12472 24.4726 6.02386 24.3633C5.91088 24.25 5.80195 24.1246 5.69704 24.0032C5.72125 24.0396 5.74546 24.072 5.76967 24.1084C5.99965 24.4402 5.36619 23.6269 5.63249 23.9304C5.6567 23.9547 5.67687 23.9789 5.69704 24.0032C5.6688 23.9587 5.63652 23.9182 5.60828 23.8737C5.43882 23.6188 5.28953 23.3517 5.15639 23.0766C5.1927 23.1656 5.22498 23.2546 5.26129 23.3437C5.17656 23.1535 5.0999 22.9633 5.01921 22.7691C5.06359 22.8702 5.10797 22.9754 5.15639 23.0725C5.01517 22.6841 4.91027 22.2875 4.83361 21.8829C4.83361 21.9355 4.84168 21.9841 4.84571 22.0407C4.82554 21.8789 4.80537 21.721 4.78116 21.5592C4.7973 21.6684 4.81344 21.7737 4.83361 21.8829C4.7973 21.4257 4.7973 20.9644 4.83361 20.5031C4.81344 20.6083 4.7973 20.7135 4.78116 20.8187C4.8094 20.6083 4.83764 20.3938 4.86589 20.1834C4.85378 20.2886 4.84168 20.3979 4.82958 20.5031C4.92641 19.969 5.06762 19.447 5.26533 18.9371C5.22094 19.0342 5.17656 19.1273 5.13621 19.2285C5.21691 19.0383 5.2976 18.8441 5.3783 18.6539C5.34199 18.751 5.30164 18.8441 5.26533 18.9371C5.38637 18.6782 5.51951 18.4232 5.67283 18.1805C5.70915 18.1238 5.74949 18.0631 5.78984 18.0024C5.74949 18.051 5.70915 18.0955 5.6688 18.144C5.49127 18.3504 6.04 17.6301 5.83826 17.9296C5.82212 17.9539 5.80598 17.9781 5.78984 18.0024C5.86247 17.9174 5.93509 17.8325 6.01175 17.7515C6.08841 17.6706 6.18121 17.5856 6.27401 17.5047C6.28208 17.4966 6.29418 17.4926 6.30225 17.4804C6.31839 17.4642 6.33453 17.4481 6.35067 17.4359C6.45961 17.3428 6.61696 17.2579 6.49996 17.3509C6.64521 17.2619 6.79449 17.181 6.94781 17.1041C6.84694 17.1405 6.75011 17.1729 6.65327 17.2174C6.84291 17.1365 7.03657 17.0556 7.22621 16.9746C7.13341 17.0151 7.03657 17.0596 6.94781 17.1041C7.29076 16.9787 7.64582 16.8897 8.00895 16.8209C7.89194 16.829 7.7709 16.8451 7.64985 16.8573C7.86369 16.833 8.0735 16.8047 8.28734 16.7723C8.19454 16.7844 8.09771 16.8006 8.00491 16.8168C8.60609 16.7642 9.20323 16.7804 9.80037 16.837C9.75195 16.829 9.70757 16.8209 9.66319 16.8128C9.82861 16.837 9.99403 16.8573 10.1595 16.8816C10.0465 16.8654 9.92948 16.8532 9.81651 16.8411C10.9543 17.0191 12.0598 17.3469 13.129 17.7758L12.891 17.6706C13.0806 17.7515 13.2743 17.8325 13.4639 17.9134C13.355 17.8648 13.242 17.8203 13.1331 17.7758C14.5412 18.403 15.8726 19.2001 17.1436 20.0661C17.5309 20.3291 17.9142 20.6002 18.2894 20.8794C18.4266 20.9806 18.5598 21.0858 18.697 21.1869C18.7292 21.2112 18.7615 21.2395 18.7938 21.2598L18.8019 21.2679C18.8019 21.2679 18.8019 21.2679 18.8099 21.2679C18.8099 21.2679 18.8126 21.2706 18.818 21.2759C18.818 21.2759 18.8261 21.284 18.8301 21.284C18.8341 21.284 18.8382 21.284 18.8382 21.2921C18.8462 21.3002 18.8503 21.3002 18.8503 21.3002C18.9108 21.3528 18.9673 21.3973 19.0278 21.4459C19.3506 21.7049 19.6693 21.9719 19.984 22.239L19.7984 23.4286C17.3009 24.4402 14.6864 25.2455 12.0235 25.6542L12.0275 25.6663ZM29.1388 17.9862C29.1066 18.0105 29.0703 18.0388 29.038 18.0672C29.0138 18.0874 28.9855 18.1036 28.9573 18.1278C28.9089 18.1643 28.8645 18.1966 28.8161 18.2331C28.5175 18.4556 28.223 18.6782 27.9204 18.8926C27.0731 19.4996 26.2096 20.0661 25.322 20.6083C25.0234 20.325 24.7168 20.0458 24.4101 19.7747C24.3335 18.1521 24.2366 16.5295 24.0954 14.911C23.9381 13.1629 23.7807 11.4108 23.9663 9.66278C24.0632 9.09224 24.2044 8.53788 24.4021 7.99162C24.5756 7.61126 24.7773 7.24304 25.0153 6.89505C25.0517 6.84649 25.092 6.79388 25.1283 6.74533L25.1364 6.73724C25.2736 6.57133 25.4229 6.41352 25.5842 6.25976C25.6528 6.19097 25.7214 6.13028 25.79 6.06958C25.79 6.06958 25.7981 6.06958 25.8021 6.06149C25.8102 6.05339 25.8183 6.04935 25.8304 6.03721H25.8384C25.8384 6.03721 25.8384 6.03721 25.8465 6.02912C25.9353 5.96033 26.1168 5.81061 26.2137 5.74587C26.5001 5.55973 26.8027 5.39383 27.1134 5.24411C27.5976 5.05798 28.0979 4.9204 28.6103 4.82734C29.155 4.77473 29.7037 4.77473 30.2524 4.81924C30.7931 4.90826 31.3136 5.04989 31.826 5.24007C31.826 5.24007 31.826 5.24007 31.834 5.24007C32.1326 5.38169 32.4272 5.5395 32.7136 5.72159C32.7741 5.75801 32.8306 5.79847 32.8911 5.84298C32.9355 5.8794 33.2341 6.10195 33.343 6.20311C33.5488 6.39329 33.7425 6.59561 33.9281 6.80198L33.9967 6.88695C34.271 7.27541 34.5091 7.676 34.7108 8.10492C34.8238 8.42054 34.9126 8.73616 34.9771 9.06391C35.0134 9.45642 35.0134 9.85296 34.9771 10.2455C34.8803 10.7391 34.7431 11.2166 34.5696 11.686C34.3558 12.1594 34.1096 12.6167 33.8353 13.0577C33.6779 13.3086 33.5165 13.5554 33.3471 13.7942C33.2785 13.8872 33.2139 13.9803 33.1453 14.0693C33.1373 14.0774 33.1332 14.0855 33.1252 14.0936C33.101 14.1219 33.0848 14.1502 33.0606 14.1786C33.0162 14.2393 32.9476 14.3202 32.9396 14.3202C32.1851 15.2306 31.3499 16.0763 30.4703 16.8654C30.0386 17.2538 29.5948 17.6261 29.1429 17.9903L29.1388 17.9862Z" fill="#00A09A"/>
</g>
<defs>
<clipPath id="clip0_273_14">
<rect width="184" height="45" fill="white"/>
</clipPath>
</defs>
</svg>
