<svg width="309" height="74" viewBox="0 0 309 74" fill="none" xmlns="http://www.w3.org/2000/svg">
<path d="M24.4 54.64C16.16 54.64 9.76 49.76 9.68 40.32C9.68 34.72 9.84 26.48 10.48 19.92C10.56 19.12 9.76 18.48 9.04 18.48C7.12 18.48 5.04 18.48 3.12 18.56C1.92 18.64 0.96 17.6 0.96 16.4V12.64C0.96 11.44 1.92 10.48 3.12 10.48H9.04C9.92 10.48 10.48 9.84 10.48 8.96C10.48 6.96 10.56 4.72 10.8 2.64C10.96 1.36 11.68 0.559997 12.8 0.399999C14.16 0.159997 15.52 0.079998 16.8 0.079998C18.16 0.079998 19.44 0.159997 20.8 0.399999C21.84 0.559997 22.88 1.36 22.72 2.64C22.56 4.8 22.24 6.64 22.24 8.88C22.24 9.84 22.88 10.48 23.68 10.48C27.04 10.48 32 10.4 35.36 10.32C36.56 10.32 37.52 11.28 37.52 12.48V16.8C37.52 18 36.56 19.12 35.36 18.96C33.2 18.72 27.12 18.48 24.88 18.56C22.96 18.56 21.84 19.6 21.6 21.52C21.12 27.12 21.2 34 21.36 38.64C21.6 42.8 23.92 44.4 27.04 44.4C28.88 44.4 33.92 43.2 35.36 42.16C36.72 40.72 38.64 41.6 38.56 43.84C38.56 46.16 38.48 48 38.48 50.16C38.4 51.44 37.84 52.24 37.04 52.64C34.08 54 27.68 54.64 24.4 54.64ZM47.6913 54.32C46.8113 54.32 44.6513 54.24 43.2913 54C42.3313 53.84 41.5313 53.04 41.5313 51.76C41.6113 33.2 41.6113 24.48 42.4913 12.48C42.6513 11.36 43.2913 10.64 44.2513 10.48C45.4513 10.24 47.2113 10.16 48.5713 10.16C49.8513 10.16 52.1713 10.24 53.1313 10.48C54.4113 10.72 55.2113 11.6 54.8913 12.64C54.3313 14.72 53.9313 16.08 53.9313 18.16C53.9313 19.76 55.0513 20.16 55.6913 18.48C58.2513 12.4 63.2913 9.92 69.1313 9.92C71.5313 9.92 74.5713 10.56 76.2513 11.52C77.2913 12.08 77.8513 12.8 77.8513 14C77.8513 17.28 77.7713 19.92 77.6113 23.28C77.5313 25.36 75.4513 25.76 74.3313 24.48C71.4513 22 68.2513 21.28 65.0513 21.28C59.1313 21.28 53.6913 26.4 53.6913 35.04C53.6913 41.2 54.4113 48.4 54.6513 51.76C54.7313 53.12 53.7713 53.92 52.8113 54.08C51.6113 54.24 49.3713 54.32 47.6913 54.32ZM91.0538 54.64C82.9738 54.64 77.5338 51.2 77.5338 42.08C77.5338 34.08 83.6138 29.52 93.6138 27.84C102.814 26.56 106.094 25.6 106.094 22.72C106.094 21.04 104.014 19.2 98.3338 19.2C93.5338 19.2 88.0138 20.64 84.1738 24C82.9738 25.68 80.8938 24.8 81.0538 22.4C81.1338 20.72 81.6938 16 81.9338 14.4C82.0938 13.2 82.5738 12.32 83.5338 11.92C87.8537 10.56 92.8138 9.84 97.9338 9.84C110.174 9.84 117.054 14.88 118.094 26.48C118.574 32.64 119.134 44.16 119.454 51.44C119.454 52.8 118.574 53.68 117.214 53.92C116.094 54.24 114.414 54.32 112.894 54.32C111.614 54.32 109.294 54.24 108.014 53.92C106.654 53.68 105.614 52.56 105.854 51.2C106.014 50.16 106.334 48.24 106.494 46.56C106.654 45.04 105.454 44.72 104.814 46.08C102.334 51.36 96.7338 54.64 91.0538 54.64ZM96.4938 44.72C100.494 44.72 105.934 41.52 105.934 35.92C105.934 33.36 104.574 31.52 100.814 31.52C95.1338 31.52 89.6938 34.8 89.6938 39.68C89.6938 43.28 91.6938 44.72 96.4938 44.72ZM142.291 54.32C140.771 54.32 138.211 54.32 136.531 54C135.651 53.84 134.691 53.12 134.291 52.48C128.131 41.92 122.611 27.28 119.171 12.96C118.851 11.84 119.411 10.64 120.851 10.48C121.971 10.24 124.211 10.16 125.331 10.16C126.211 10.16 129.331 10.24 130.531 10.48C131.491 10.64 132.211 11.44 132.371 12.32C133.251 23.92 137.251 34.24 140.611 41.2C141.651 43.28 142.851 43.28 143.891 41.2C147.171 34.24 151.171 23.68 152.051 12.32C152.211 11.44 152.931 10.64 153.891 10.48C155.171 10.24 158.131 10.16 159.091 10.16C160.371 10.16 162.451 10.32 163.571 10.48C165.011 10.64 165.571 11.84 165.251 12.96C161.331 27.44 156.131 41.84 150.051 52.48C149.651 53.12 148.771 53.84 147.891 54C146.131 54.32 143.571 54.32 142.291 54.32ZM184.758 54.64C172.598 54.64 167.158 46.4 167.158 33.28C167.158 27.2 167.478 21.28 168.278 12.72C168.358 11.36 169.078 10.64 170.198 10.4C171.478 10.16 173.318 10.08 174.118 10.08C175.158 10.08 177.638 10.16 179.158 10.4C180.198 10.64 181.078 11.36 180.918 12.64C180.118 18.24 179.078 26.16 179.078 30.8C179.078 39.36 182.198 44.48 189.558 44.48C195.318 44.48 199.158 38.88 199.158 30.24C199.158 25.6 198.678 18.64 197.638 12.72C197.398 11.44 198.358 10.64 199.318 10.4C200.518 10.24 202.758 10.08 204.038 10.08C205.478 10.08 207.238 10.24 208.598 10.4C209.558 10.56 210.358 11.44 210.518 12.72C211.798 31.28 211.718 39.2 211.638 51.92C211.638 53.12 210.998 53.84 210.038 54.08C208.918 54.32 207.398 54.4 206.038 54.4C204.598 54.4 202.998 54.24 201.478 54.08C200.438 53.84 199.558 53.04 199.798 51.84C200.038 50.4 200.038 48.96 200.038 47.84C200.038 46.08 199.238 45.92 198.358 47.44C194.918 52.48 190.598 54.64 184.758 54.64ZM236.087 73.04C230.167 73.04 221.927 72.56 216.887 70.96C215.687 70.48 214.967 69.52 215.127 68.16L215.847 59.44C216.087 57.6 217.767 57.04 218.887 58.32C222.567 60.88 228.327 62.32 233.287 62.32C241.527 62.32 248.167 57.36 248.167 49.84V48.48C248.167 46.48 246.727 46.4 245.847 48.08C242.967 52.72 238.007 54.72 232.167 54.72C222.247 54.72 214.887 46.88 214.887 32.32C214.887 18.16 222.167 9.84 232.167 9.84C237.927 9.84 242.887 12.48 246.007 17.28C246.727 18.56 247.607 18.4 247.527 16.72C247.447 15.52 247.127 13.92 246.967 12.56C246.807 11.44 247.687 10.72 248.727 10.48C249.687 10.24 251.527 10.16 253.127 10.16C254.647 10.16 256.087 10.24 257.127 10.48C258.167 10.72 258.807 11.44 258.967 12.48C260.007 21.92 260.087 35.2 260.087 50.8C260.087 67.12 250.087 73.04 236.087 73.04ZM237.047 45.28C243.127 45.28 247.767 40.4 247.767 32.16C247.767 24.24 243.287 19.52 237.047 19.44C230.727 19.44 226.327 24.24 226.327 32.16C226.327 40.4 230.807 45.28 237.047 45.28ZM285.871 54.64C273.071 54.64 263.471 47.28 263.471 32.56C263.471 18.24 272.911 9.84 285.871 9.84C298.751 9.84 308.111 18.24 308.111 32.56C308.111 47.28 298.671 54.64 285.871 54.64ZM285.871 45.2C292.111 45.2 296.751 40.56 296.751 32.16C296.751 24.16 292.271 19.28 285.871 19.28C279.391 19.28 274.991 24.16 274.991 32.16C274.991 40.56 279.551 45.2 285.871 45.2Z" fill="#00A09A"/>
</svg>
